<?xml version="1.0" standalone="no"?>
<!DOCTYPE svg PUBLIC "-//W3C//DTD SVG 20010904//EN"
 "http://www.w3.org/TR/2001/REC-SVG-20010904/DTD/svg10.dtd">
<svg version="1.0" xmlns="http://www.w3.org/2000/svg"
 width="1000.000000pt" height="1000.000000pt" viewBox="0 0 1000.000000 1000.000000"
 preserveAspectRatio="xMidYMid meet">

<g transform="translate(0.000000,1000.000000) scale(0.100000,-0.100000)"
fill="#000000" stroke="none">
<path d="M4006 7617 c3 -10 9 -15 12 -12 3 3 0 11 -7 18 -10 9 -11 8 -5 -6z"/>
<path d="M4015 7509 c-4 -6 -5 -12 -2 -15 2 -3 7 2 10 11 7 17 1 20 -8 4z"/>
<path d="M3960 7506 c0 -2 8 -10 18 -17 15 -13 16 -12 3 4 -13 16 -21 21 -21
13z"/>
<path d="M3086 6794 c-47 -46 -1 -113 162 -237 225 -173 232 -177 272 -177
104 0 74 116 -57 222 -221 180 -332 237 -377 192z"/>
<path d="M6835 6791 c-87 -40 -323 -223 -355 -277 -52 -83 -41 -134 30 -134
32 0 52 10 112 56 40 31 123 93 184 140 139 105 182 174 138 218 -20 21 -60
20 -109 -3z"/>
<path d="M8624 6509 c-17 -32 -28 -59 -25 -59 8 0 64 111 59 115 -2 2 -17 -23
-34 -56z"/>
<path d="M1400 6547 c0 -36 98 -181 189 -282 49 -53 177 -165 189 -165 4 1 -9
13 -28 28 -118 91 -235 225 -306 350 -24 42 -44 73 -44 69z"/>
<path d="M8550 6393 c-19 -27 -59 -74 -89 -106 -30 -32 -48 -55 -40 -52 27 12
185 205 167 205 -3 0 -20 -21 -38 -47z"/>
<path d="M4635 6324 c-87 -6 -395 -58 -387 -66 4 -4 73 5 152 19 145 27 146
27 635 28 432 0 501 -2 584 -18 51 -10 95 -16 98 -13 7 6 -21 14 -127 32 -77
14 -172 17 -500 19 -223 1 -427 0 -455 -1z"/>
<path d="M6005 6220 c3 -5 11 -10 16 -10 6 0 7 5 4 10 -3 6 -11 10 -16 10 -6
0 -7 -4 -4 -10z"/>
<path d="M3985 6210 c-3 -5 -2 -10 4 -10 5 0 13 5 16 10 3 6 2 10 -4 10 -5 0
-13 -4 -16 -10z"/>
<path d="M8364 6188 l-29 -33 33 29 c30 28 37 36 29 36 -2 0 -16 -15 -33 -32z"/>
<path d="M8266 6115 c-11 -8 -15 -15 -9 -15 6 0 16 7 23 15 16 19 11 19 -14 0z"/>
<path d="M6115 5993 c23 -54 64 -156 90 -228 26 -71 51 -140 56 -153 5 -13 14
-20 20 -16 7 4 7 9 2 13 -6 3 -19 33 -31 66 -28 83 -126 324 -151 374 -37 72
-30 44 14 -56z"/>
<path d="M1835 6065 c22 -18 86 -53 70 -38 -5 6 -28 20 -50 32 -22 13 -31 15
-20 6z"/>
<path d="M8174 6054 c-18 -14 -18 -15 4 -4 12 6 22 13 22 15 0 8 -5 6 -26 -11z"/>
<path d="M3852 5938 c-46 -107 -83 -201 -107 -273 -9 -27 -21 -53 -27 -56 -7
-4 -7 -9 1 -13 6 -4 13 -1 16 6 32 93 114 307 136 357 16 35 27 66 25 68 -2 2
-22 -38 -44 -89z"/>
<path d="M8090 6010 c-8 -5 -10 -10 -5 -10 6 0 17 5 25 10 8 5 11 10 5 10 -5
0 -17 -5 -25 -10z"/>
<path d="M1965 5990 c3 -5 8 -10 11 -10 2 0 4 5 4 10 0 6 -5 10 -11 10 -5 0
-7 -4 -4 -10z"/>
<path d="M4650 5995 c0 -10 74 -104 78 -100 2 2 -12 27 -33 55 -34 47 -45 57
-45 45z"/>
<path d="M5275 5945 c-20 -31 -35 -59 -32 -61 2 -2 20 21 41 52 20 31 34 59
32 62 -3 2 -21 -21 -41 -53z"/>
<path d="M8051 5991 c-9 -6 -11 -14 -4 -26 9 -15 11 -14 15 9 3 14 5 26 4 26
0 0 -7 -4 -15 -9z"/>
<path d="M2285 5747 c-11 -6 -33 -20 -49 -30 -18 -12 -26 -14 -21 -6 5 8 0 6
-12 -3 -11 -10 -25 -18 -32 -18 -8 0 -10 -7 -6 -20 7 -23 -4 -26 -24 -7 -14
12 -13 6 6 -40 4 -10 -11 -13 -56 -14 -75 -2 -77 -2 -87 -11 -4 -5 288 -8 649
-8 361 0 658 4 661 9 3 4 -138 9 -317 10 -287 1 -323 3 -334 18 -7 9 -13 13
-13 7 0 -5 -5 -1 -11 8 -5 9 -15 15 -23 12 -7 -3 -36 4 -65 16 -28 11 -60 20
-69 20 -10 0 -34 9 -55 19 -24 12 -39 15 -44 8 -4 -6 -10 -5 -17 4 -12 16 -25
18 -45 5 -11 -7 -13 -5 -8 7 8 22 -3 27 -28 14z"/>
<path d="M7608 5734 c-4 -3 -4 -12 -2 -18 3 -9 -4 -11 -27 -8 -23 3 -30 1 -24
-7 5 -10 3 -10 -12 0 -16 10 -26 7 -62 -15 -23 -15 -48 -25 -54 -23 -7 2 -32
-8 -57 -22 l-45 -25 -355 -6 c-259 -4 -304 -7 -165 -8 905 -11 1078 -12 1135
-4 l65 9 -60 2 c-33 1 -68 8 -77 15 -20 15 -24 31 -5 20 8 -5 8 -3 -2 9 -7 9
-18 14 -25 10 -6 -3 -8 -2 -3 2 8 9 -30 55 -46 55 -5 0 1 -9 14 -21 l24 -20
-27 17 c-16 9 -28 21 -29 28 0 6 -4 2 -9 -9 -5 -11 -9 -14 -9 -7 -1 7 -5 11
-10 7 -5 -3 -13 0 -17 6 -4 7 -3 9 4 5 6 -3 13 -2 16 3 7 10 -19 9 -30 -1 -3
-4 -17 -3 -31 3 -16 6 -22 6 -18 -1 8 -13 -28 -13 -41 0 -6 6 -13 8 -16 4z
m183 -61 c13 -16 12 -17 -3 -4 -10 7 -18 15 -18 17 0 8 8 3 21 -13z"/>
<path d="M4790 5680 c0 -11 4 -20 8 -20 4 0 8 9 9 20 1 11 -2 20 -8 20 -5 0
-9 -9 -9 -20z"/>
<path d="M4838 5693 c-20 -5 -25 -33 -6 -33 6 0 8 3 5 7 -4 3 1 12 11 19 18
14 17 14 -10 7z"/>
<path d="M4884 5690 c-25 -10 -41 -30 -25 -30 6 0 11 5 11 10 0 6 9 10 20 10
11 0 20 5 20 10 0 6 -1 10 -2 9 -2 0 -13 -4 -24 -9z"/>
<path d="M5199 5693 c-1 -5 -1 -11 0 -15 0 -5 -3 -8 -9 -8 -5 0 -10 5 -10 10
0 6 -5 10 -11 10 -5 0 -7 -4 -4 -10 3 -5 -1 -10 -10 -10 -9 0 -13 5 -10 10 4
6 -7 9 -27 9 -28 -2 -29 -2 -8 -7 23 -4 24 -5 5 -13 -14 -5 0 -8 42 -8 56 -1
61 1 56 19 -5 20 -12 26 -14 13z"/>
<path d="M4926 5674 c-6 -15 -4 -15 11 -3 10 7 20 15 22 16 2 2 -3 3 -11 3 -9
0 -19 -7 -22 -16z"/>
<path d="M5039 5683 c26 -3 31 -7 20 -14 -11 -7 -9 -9 8 -9 16 0 21 4 17 15
-4 10 -18 14 -43 13 l-36 -1 34 -4z"/>
<path d="M5003 5663 c9 -2 23 -2 30 0 6 3 -1 5 -18 5 -16 0 -22 -2 -12 -5z"/>
<path d="M5267 5622 c3 -12 9 -25 14 -28 14 -8 11 10 -6 32 -13 18 -14 18 -8
-4z"/>
<path d="M4720 5605 c-10 -12 -10 -15 4 -15 9 0 16 7 16 15 0 8 -2 15 -4 15
-2 0 -9 -7 -16 -15z"/>
<path d="M3336 5598 c3 -4 9 -8 15 -8 5 0 9 4 9 8 0 5 -7 9 -15 9 -8 0 -12 -4
-9 -9z"/>
<path d="M2423 5553 c9 -2 23 -2 30 0 6 3 -1 5 -18 5 -16 0 -22 -2 -12 -5z"/>
<path d="M2498 5553 c7 -3 16 -2 19 1 4 3 -2 6 -13 5 -11 0 -14 -3 -6 -6z"/>
<path d="M2538 5553 c7 -3 16 -2 19 1 4 3 -2 6 -13 5 -11 0 -14 -3 -6 -6z"/>
<path d="M2578 5553 c6 -2 18 -2 25 0 6 3 1 5 -13 5 -14 0 -19 -2 -12 -5z"/>
<path d="M2663 5553 c26 -2 67 -2 90 0 23 2 2 3 -48 3 -49 0 -68 -1 -42 -3z"/>
<path d="M2823 5553 c15 -2 37 -2 50 0 12 2 0 4 -28 4 -27 0 -38 -2 -22 -4z"/>
<path d="M2918 5553 c7 -3 16 -2 19 1 4 3 -2 6 -13 5 -11 0 -14 -3 -6 -6z"/>
<path d="M2998 5553 c7 -3 16 -2 19 1 4 3 -2 6 -13 5 -11 0 -14 -3 -6 -6z"/>
<path d="M3198 5553 c6 -2 18 -2 25 0 6 3 1 5 -13 5 -14 0 -19 -2 -12 -5z"/>
<path d="M4937 4652 c-22 -24 -21 -55 1 -75 24 -22 45 -21 65 1 21 23 21 41 1
70 -18 27 -45 28 -67 4z m61 -14 c32 -32 -18 -87 -53 -58 -28 23 -12 70 25 70
9 0 21 -5 28 -12z"/>
<path d="M1341 2944 c0 -11 3 -14 6 -6 3 7 2 16 -1 19 -3 4 -6 -2 -5 -13z"/>
<path d="M2305 2580 c3 -5 8 -10 11 -10 2 0 4 5 4 10 0 6 -5 10 -11 10 -5 0
-7 -4 -4 -10z"/>
<path d="M2800 2581 c0 -6 4 -13 10 -16 6 -3 7 1 4 9 -7 18 -14 21 -14 7z"/>
<path d="M2755 2570 c-3 -5 1 -10 9 -10 9 0 16 5 16 10 0 6 -4 10 -9 10 -6 0
-13 -4 -16 -10z"/>
<path d="M3485 2554 c-25 -20 -26 -22 -8 -18 12 4 28 13 34 20 20 24 5 23 -26
-2z"/>
<path d="M6600 2569 c0 -5 5 -7 10 -4 6 3 10 8 10 11 0 2 -4 4 -10 4 -5 0 -10
-5 -10 -11z"/>
<path d="M2609 2561 c12 -8 12 -12 3 -24 -7 -8 -11 -20 -10 -27 2 -7 -3 -15
-11 -18 -9 -3 -11 0 -6 9 5 8 5 11 0 7 -4 -4 -14 -3 -22 3 -8 7 -13 8 -13 1 0
-5 7 -12 15 -16 8 -3 14 -10 13 -15 -4 -13 4 -15 30 -7 12 4 22 15 22 24 0 14
3 14 18 -4 9 -12 25 -24 35 -27 10 -4 15 -11 12 -17 -4 -6 -15 -2 -28 10 -25
24 -42 21 -43 -8 -1 -23 21 -30 29 -9 3 7 6 4 6 -6 1 -11 6 -15 13 -11 7 4 8
3 4 -5 -4 -6 -11 -9 -16 -6 -4 3 -10 0 -12 -7 -5 -14 -30 6 -41 32 -4 12 -6
12 -6 -2 -1 -24 10 -48 23 -48 6 -1 24 -11 40 -24 16 -14 35 -22 41 -20 7 3
15 -5 18 -17 4 -15 11 -20 22 -15 9 3 23 6 31 6 8 0 14 5 14 10 0 6 -10 8 -24
4 -13 -3 -27 -1 -30 5 -4 6 1 11 12 11 26 0 34 11 21 27 -14 16 2 18 19 1 8
-8 15 -8 28 3 14 12 16 11 12 -6 -2 -11 -10 -19 -17 -17 -9 2 -9 -3 -1 -18 6
-11 18 -20 26 -20 8 0 12 -4 9 -10 -3 -5 -1 -10 4 -10 6 0 11 7 11 15 0 8 7
15 16 15 11 0 14 -6 9 -20 -4 -14 -2 -20 9 -20 27 0 29 21 5 47 l-24 26 23
-12 c13 -7 26 -19 29 -26 3 -9 18 -14 37 -13 17 1 41 -4 52 -10 26 -14 55 1
29 15 -11 7 -14 13 -7 17 6 4 16 -3 23 -16 11 -20 13 -20 24 -5 11 15 13 16
19 2 3 -8 16 -15 28 -15 13 0 32 -7 42 -15 21 -16 46 -20 46 -7 0 4 -12 15
-26 23 -17 10 -22 19 -15 23 6 4 11 2 11 -3 0 -6 12 -11 26 -11 15 0 23 4 19
11 -4 6 3 5 14 -3 13 -8 20 -20 17 -30 -4 -17 29 -36 41 -24 4 3 0 6 -9 6 -8
0 -15 7 -15 15 0 18 -1 18 34 3 38 -16 63 -18 63 -4 0 6 11 11 25 11 14 0 25
-3 25 -7 0 -5 -5 -8 -12 -8 -6 0 -9 -2 -6 -5 8 -8 39 6 33 15 -3 5 9 5 27 -1
18 -5 40 -9 48 -9 13 0 13 1 0 10 -8 5 -11 12 -8 15 9 10 28 -3 28 -19 0 -7 6
-13 14 -13 8 0 12 6 9 12 -2 7 5 15 16 18 12 3 19 2 16 -3 -3 -4 2 -11 11 -14
8 -3 12 -2 9 3 -3 5 4 12 15 16 11 3 20 11 20 16 0 6 -4 8 -8 5 -5 -3 -9 2 -9
10 0 13 3 13 16 -1 15 -15 14 -17 -1 -29 -17 -12 -17 -14 0 -29 10 -10 23 -13
31 -8 10 6 9 10 -4 15 -14 5 -15 9 -5 21 7 8 16 13 20 10 15 -9 38 6 35 23 -2
9 -4 19 -4 22 -1 3 -6 -2 -11 -10 -8 -11 -9 -5 -5 20 5 26 3 32 -5 24 -7 -7
-13 -23 -13 -37 -1 -16 -6 -22 -11 -17 -6 6 -5 19 2 35 11 24 7 30 -20 26 -5
0 -8 4 -8 10 0 5 -5 7 -11 3 -7 -4 -9 2 -7 17 2 16 -2 23 -10 21 -10 -2 -12 4
-7 20 6 22 6 22 -9 4 -9 -11 -16 -15 -16 -9 0 20 -35 19 -45 -1 -13 -25 -35
-32 -35 -12 0 9 6 13 13 10 8 -3 14 2 14 9 0 17 -29 16 -35 -1 -2 -7 -8 -12
-13 -12 -4 0 -6 6 -3 14 3 7 -2 16 -12 20 -13 5 -14 4 -6 -7 7 -8 9 -17 5 -20
-3 -4 0 -14 8 -23 13 -16 12 -16 -9 -5 -12 7 -22 17 -21 24 3 26 -2 38 -13 31
-8 -5 -9 -2 -5 9 3 9 1 19 -5 23 -6 4 -8 3 -4 -4 4 -7 -1 -10 -14 -9 -11 1
-20 4 -20 7 0 4 -7 7 -17 7 -12 0 -11 -4 7 -19 20 -16 21 -21 9 -29 -18 -11
-46 -12 -53 0 -8 12 -69 2 -79 -12 -5 -7 -6 -2 -2 11 5 18 2 22 -14 22 -15 0
-19 4 -14 18 4 9 -7 1 -23 -18 -16 -19 -28 -38 -26 -42 1 -4 -2 -8 -8 -8 -5 0
-10 9 -10 20 0 22 -15 27 -26 9 -5 -8 -9 -7 -14 1 -6 10 -15 5 -35 -16 -18
-19 -29 -25 -32 -16 -3 6 -12 12 -21 12 -13 0 -13 3 -4 12 10 10 15 10 22 -2
9 -13 11 -13 20 0 14 21 12 30 -5 30 -8 0 -15 4 -15 10 0 6 10 5 25 -2 18 -8
28 -8 38 0 7 6 24 8 37 5 16 -4 21 -3 16 6 -4 6 -11 9 -16 6 -4 -3 -10 1 -13
7 -3 9 -9 8 -19 -5 -11 -15 -19 -16 -39 -8 -18 6 -33 6 -50 -3 -20 -10 -26 -9
-37 3 -12 14 -13 11 -8 -16 4 -26 2 -33 -10 -33 -9 0 -18 9 -21 20 l-5 20 -18
-20 c-14 -17 -19 -18 -29 -7 -6 8 -8 17 -4 20 3 4 1 7 -5 7 -7 0 -12 -7 -12
-16 0 -12 -3 -14 -12 -6 -7 6 -17 12 -23 14 -5 1 -9 7 -7 11 1 5 -3 5 -10 1
-18 -11 -48 -12 -54 -2 -3 4 2 8 10 8 10 0 13 6 10 15 -7 18 -25 20 -21 3 1
-7 -8 -13 -20 -14 -13 -1 -23 4 -23 12 0 7 -4 15 -9 18 -5 4 -7 -3 -4 -14 3
-12 2 -20 -3 -19 -20 3 -35 -2 -30 -10 3 -5 -1 -12 -10 -15 -8 -3 -12 -2 -9 4
6 9 -16 15 -38 11 -5 -1 -6 12 -2 29 5 25 3 30 -12 30 -15 0 -15 -2 -4 -9z
m163 -65 c7 5 9 1 5 -9 -3 -9 -2 -19 3 -22 9 -6 14 8 11 28 -1 4 8 3 19 -3 11
-6 20 -13 20 -16 0 -3 -4 -3 -9 0 -5 4 -11 1 -13 -5 -2 -5 -16 -12 -31 -13
-20 -3 -27 1 -27 15 0 9 -3 26 -6 36 -5 17 -5 17 6 0 6 -9 16 -14 22 -11z
m-42 -1 c0 -8 -7 -15 -15 -15 -8 0 -15 7 -15 15 0 8 7 15 15 15 8 0 15 -7 15
-15z m696 -16 c10 -21 11 -29 3 -23 -9 5 -11 2 -6 -9 3 -9 2 -19 -2 -21 -4 -3
-7 7 -7 22 1 15 -2 35 -7 45 -14 30 2 18 19 -14z m-545 -9 c11 0 18 -4 14 -9
-3 -5 -1 -12 5 -16 5 -3 10 -13 10 -21 0 -8 -5 -12 -10 -9 -6 4 -8 11 -5 16
10 15 -26 23 -46 10 -12 -7 -19 -7 -19 -1 0 5 5 10 11 10 6 0 9 6 6 14 -3 8
-3 17 1 21 4 3 8 1 10 -4 2 -6 13 -11 23 -11z m79 -11 c0 -11 -28 -24 -36 -17
-2 3 -2 12 2 21 6 16 34 12 34 -4z m267 3 c-10 -10 -15 -22 -12 -25 3 -4 0 -3
-5 1 -14 12 -1 42 18 42 13 0 13 -2 -1 -18z m116 -11 c10 -12 9 -13 -8 -7 -11
5 -30 8 -43 7 -13 0 -20 4 -17 9 9 14 54 8 68 -9z m50 -18 c-4 -11 -8 -13 -11
-5 -2 7 -9 9 -15 5 -7 -4 -6 1 2 10 16 20 33 13 24 -10z m-647 -3 c9 0 12 -5
9 -10 -8 -13 -35 6 -34 24 0 7 2 6 6 -1 2 -7 11 -13 19 -13z m517 5 c4 -8 1
-17 -5 -21 -7 -4 -8 -3 -4 4 4 7 3 12 -3 12 -6 0 -17 -12 -25 -27 -8 -16 -15
-23 -16 -17 0 10 37 64 45 64 1 0 5 -7 8 -15z m301 -22 c-10 -7 -24 -11 -31
-9 -7 3 -13 0 -13 -7 0 -8 -4 -7 -9 3 -12 18 -3 34 12 22 7 -5 21 -6 32 -1 11
4 14 8 8 8 -7 1 -13 6 -13 12 0 8 5 7 16 -2 14 -12 14 -14 -2 -26z m-571 -3
c20 0 20 0 1 15 -18 14 -18 14 4 8 13 -3 22 -13 22 -25 0 -10 5 -16 10 -13 6
3 10 1 10 -5 0 -6 10 -10 23 -8 13 2 21 9 19 18 -3 13 -1 13 10 1 10 -11 10
-14 0 -18 -6 -3 -10 -9 -7 -13 3 -5 0 -12 -6 -16 -8 -4 -9 -3 -5 4 5 8 -1 12
-16 12 -30 0 -52 -15 -44 -29 5 -8 -1 -7 -21 1 -38 16 -39 18 -23 28 12 7 11
12 -4 29 -11 12 -15 25 -10 33 7 10 9 9 12 -4 2 -11 12 -18 25 -18z m162 21
c3 -5 2 -12 -3 -15 -5 -3 -9 1 -9 9 0 17 3 19 12 6z m170 -21 c4 -6 10 -8 14
-6 4 3 8 -1 8 -9 0 -13 -3 -13 -17 0 -20 18 -55 21 -44 3 4 -7 3 -8 -5 -4 -8
6 -9 12 -2 20 6 7 7 16 3 21 -4 4 3 3 15 -4 12 -6 25 -16 28 -21z m-265 10 c0
-5 -5 -10 -11 -10 -5 0 -7 5 -4 10 3 6 8 10 11 10 2 0 4 -4 4 -10z m555 -10
c4 -11 10 -18 15 -15 13 8 5 -24 -9 -38 -11 -10 -13 -8 -8 10 2 12 0 24 -6 26
-12 4 -19 37 -7 37 5 0 12 -9 15 -20z m-165 -2 c0 -9 3 -9 12 0 7 7 17 12 23
12 5 0 2 -5 -7 -11 -10 -5 -18 -19 -18 -30 0 -11 -4 -18 -9 -15 -12 8 -20 56
-10 56 5 0 9 -5 9 -12z m-756 -19 c-3 -5 -10 -7 -15 -3 -5 3 -7 10 -3 15 3 5
10 7 15 3 5 -3 7 -10 3 -15z m240 6 c-4 -8 -8 -15 -10 -15 -2 0 -4 7 -4 15 0
8 4 15 10 15 5 0 7 -7 4 -15z m476 -7 c0 -6 -6 -5 -15 2 -8 7 -15 14 -15 16 0
2 7 1 15 -2 8 -4 15 -11 15 -16z m-746 -4 c3 -8 2 -12 -4 -9 -6 3 -10 10 -10
16 0 14 7 11 14 -7z m221 7 c10 -17 -12 -21 -25 -6 -10 12 -10 15 3 15 9 0 18
-4 22 -9z m306 0 c-7 -5 -10 -14 -7 -20 4 -6 0 -11 -8 -11 -9 0 -16 4 -16 8 0
12 22 32 35 32 5 0 4 -4 -4 -9z m123 -19 c3 -5 -1 -9 -9 -9 -8 0 -15 4 -15 9
0 4 4 8 9 8 6 0 12 -4 15 -8z m58 -34 c-6 -6 -12 -6 -17 3 -6 8 -4 10 5 4 9
-5 10 -1 6 16 -6 21 -6 22 5 6 7 -13 8 -22 1 -29z m-425 5 c1 -22 -1 -24 -8
-10 -6 9 -7 22 -4 27 9 14 10 13 12 -17z m480 12 c0 -8 -4 -12 -9 -9 -5 3 -6
10 -3 15 9 13 12 11 12 -6z m-567 -16 c0 -5 -4 -9 -10 -9 -5 0 -10 7 -10 16 0
8 5 12 10 9 6 -3 10 -10 10 -16z m276 6 c18 -13 18 -14 -4 -8 -12 3 -25 9 -28
14 -8 14 10 11 32 -6z m378 -6 c-3 -5 -9 -7 -14 -4 -5 3 -11 1 -15 -5 -8 -12
-25 -13 -25 -2 0 11 42 31 53 25 4 -2 5 -9 1 -14z m98 -4 c2 3 5 -1 5 -9 0 -8
-8 -11 -19 -8 -10 2 -18 13 -18 26 1 19 2 20 14 4 7 -10 15 -16 18 -13z m-318
-1 c3 -8 2 -12 -4 -9 -6 3 -10 10 -10 16 0 14 7 11 14 -7z m36 -4 c-12 -22
-21 -26 -17 -7 2 10 17 26 25 27 1 0 -2 -9 -8 -20z m230 0 c0 -5 -4 -10 -10
-10 -5 0 -10 5 -10 10 0 6 5 10 10 10 6 0 10 -4 10 -10z"/>
<path d="M2990 2387 c0 -19 16 -31 24 -18 3 5 -1 14 -9 21 -12 10 -15 10 -15
-3z"/>
<path d="M2660 2560 c-9 -6 -10 -10 -3 -10 6 0 15 5 18 10 8 12 4 12 -15 0z"/>
<path d="M2335 2549 c-11 -17 1 -21 15 -4 8 9 8 15 2 15 -6 0 -14 -5 -17 -11z"/>
<path d="M7099 2551 c8 -5 11 -16 8 -25 -4 -9 -1 -15 6 -13 7 1 11 -5 9 -14
-1 -9 5 -16 13 -16 17 0 20 13 4 22 -5 4 -14 18 -19 31 -5 13 -15 24 -22 24
-10 0 -9 -3 1 -9z"/>
<path d="M2576 2541 c-4 -7 -5 -15 -2 -18 9 -9 19 4 14 18 -4 11 -6 11 -12 0z"/>
<path d="M6985 2540 c4 -6 11 -8 17 -4 5 3 2 -8 -7 -26 -9 -17 -14 -38 -11
-46 3 -7 1 -16 -4 -19 -6 -4 -10 1 -10 9 0 15 -11 20 -37 17 -6 -1 -15 4 -19
10 -5 8 -3 9 7 4 8 -5 7 0 -3 12 -18 20 -24 38 -10 29 4 -2 14 -1 22 5 11 6 8
9 -13 9 -21 0 -28 -4 -25 -17 1 -10 -1 -23 -5 -29 -4 -7 4 -19 18 -28 17 -11
26 -13 31 -4 9 13 34 -18 34 -41 -1 -14 -3 -13 -14 2 -16 21 -39 22 -56 2 -7
-8 -18 -15 -24 -15 -16 0 -15 -38 1 -44 7 -3 13 1 13 8 0 8 7 16 15 19 11 5
10 -2 -5 -28 -10 -18 -16 -36 -13 -39 3 -3 -2 -8 -11 -12 -28 -11 -18 -22 20
-21 31 1 33 3 18 14 -11 8 -13 13 -5 13 7 0 9 5 5 12 -4 7 -3 8 5 4 6 -4 9
-11 6 -16 -3 -5 -1 -11 5 -15 5 -3 10 -13 10 -21 0 -9 -5 -12 -12 -8 -7 4 -8
3 -4 -5 11 -17 23 -5 30 31 5 24 9 29 15 19 5 -7 13 -11 19 -7 6 3 18 -4 26
-16 l16 -22 0 24 c1 22 2 23 11 7 7 -13 14 -15 23 -8 6 5 27 13 45 16 44 8 45
8 51 5 21 -8 37 -6 37 5 0 7 -6 11 -13 8 -6 -2 -15 1 -19 7 -6 9 -10 9 -16 -1
-7 -11 -9 -10 -9 3 0 9 -6 19 -12 22 -7 3 -2 3 12 0 14 -4 27 -10 30 -14 3 -5
17 2 32 15 15 13 22 25 16 27 -13 5 30 48 46 48 7 0 6 -3 -1 -8 -16 -10 -5
-24 32 -42 17 -8 33 -16 38 -18 4 -2 7 1 7 7 0 6 -7 11 -16 11 -8 0 -13 4 -10
9 3 5 -2 8 -11 7 -10 0 -18 4 -18 11 0 6 -3 14 -7 18 -4 4 -4 14 -1 23 4 15 3
15 -6 2 -8 -11 -11 -11 -12 -2 -3 27 -4 31 -11 37 -4 4 -5 12 -4 18 2 7 1 9
-1 4 -3 -4 -8 -5 -13 -2 -4 3 -14 -3 -21 -12 -12 -14 -12 -16 1 -8 12 6 13 5
3 -5 -11 -12 -15 -11 -28 6 -15 18 -15 18 -8 0 5 -15 3 -17 -8 -11 -8 5 -5 -1
5 -14 13 -15 22 -18 27 -10 4 7 10 3 14 -12 5 -14 3 -25 -4 -27 -6 -2 -8 -9
-5 -14 5 -7 2 -8 -5 -3 -9 5 -10 10 -2 18 6 6 11 16 11 21 0 6 -4 6 -8 -1 -6
-9 -15 -6 -35 11 -17 15 -35 22 -47 19 -14 -4 -20 0 -20 10 0 9 -4 18 -9 21
-5 3 -8 -2 -7 -11 2 -25 33 -53 52 -46 11 4 15 1 13 -13 -2 -10 0 -25 5 -33 7
-10 6 -12 -4 -6 -7 4 -16 2 -21 -6 -7 -10 -8 -5 -4 12 6 23 3 27 -18 27 -26 0
-32 -28 -9 -36 7 -2 12 -11 11 -20 0 -10 -3 -12 -5 -5 -3 7 -12 9 -20 6 -10
-4 -14 -1 -12 10 2 9 -1 16 -7 16 -5 0 -9 -8 -8 -17 1 -10 0 -11 -3 -4 -3 6
-11 9 -17 5 -7 -4 -7 -1 1 9 8 10 9 19 3 22 -5 4 -17 -4 -25 -16 l-16 -22 0
21 c0 12 -5 25 -10 28 -8 5 -8 11 -1 19 6 7 8 16 4 19 -3 4 -2 7 4 7 6 0 13 9
16 20 3 11 9 20 14 19 23 -4 23 3 0 21 -26 21 -53 27 -42 10z m261 -66 c-4
-26 -19 -20 -20 8 -1 20 2 24 10 17 7 -5 11 -17 10 -25z m-64 -58 c-2 -9 4
-19 12 -22 9 -3 13 -11 10 -16 -4 -6 -10 -5 -15 3 -6 10 -9 11 -9 2 0 -7 -7
-13 -16 -13 -14 0 -15 2 -3 17 10 12 11 17 2 20 -7 2 -9 11 -6 19 7 20 29 11
25 -10z m-187 -54 c-3 -3 -11 0 -18 7 -9 10 -8 11 6 5 10 -3 15 -9 12 -12z
m-45 4 c0 -2 -7 -7 -16 -10 -8 -3 -12 -2 -9 4 6 10 25 14 25 6z m118 -39 c2
-8 -1 -18 -7 -21 -5 -4 -7 4 -4 16 3 13 1 19 -4 13 -7 -10 -21 -11 -46 -7 -5
1 -6 6 -2 11 9 15 60 5 63 -12z m56 8 c-4 -8 -11 -12 -16 -9 -6 4 -5 10 3 15
19 12 19 11 13 -6z"/>
<path d="M7276 2535 c-15 -11 -16 -17 -8 -28 7 -8 8 -18 4 -22 -4 -5 -1 -5 6
-1 10 6 10 11 1 22 -10 12 -6 18 12 16 3 -1 6 6 6 14 0 8 -1 14 -1 14 -1 0
-10 -7 -20 -15z"/>
<path d="M3260 2526 c0 -9 5 -14 10 -11 6 3 10 2 10 -4 0 -5 10 -9 23 -8 22 1
37 14 37 32 0 6 -5 3 -10 -5 -12 -19 -31 -20 -52 -2 -16 13 -18 13 -18 -2z"/>
<path d="M3577 2529 c7 -7 15 -10 18 -7 3 3 -2 9 -12 12 -14 6 -15 5 -6 -5z"/>
<path d="M3760 2525 c7 -8 19 -15 26 -15 8 0 14 -9 14 -19 0 -10 7 -21 15 -25
18 -7 20 5 3 22 -9 9 -8 12 7 12 12 0 5 7 -20 20 -47 24 -62 26 -45 5z"/>
<path d="M3850 2530 c0 -5 5 -10 10 -10 6 0 10 5 10 10 0 6 -4 10 -10 10 -5 0
-10 -4 -10 -10z"/>
<path d="M3905 2530 c3 -5 8 -10 11 -10 2 0 4 5 4 10 0 6 -5 10 -11 10 -5 0
-7 -4 -4 -10z"/>
<path d="M6475 2530 c3 -5 8 -10 11 -10 2 0 4 5 4 10 0 6 -5 10 -11 10 -5 0
-7 -4 -4 -10z"/>
<path d="M7150 2530 c0 -5 5 -10 10 -10 6 0 10 5 10 10 0 6 -4 10 -10 10 -5 0
-10 -4 -10 -10z"/>
<path d="M7350 2531 c0 -6 7 -14 15 -17 8 -4 12 -11 8 -18 -4 -6 -8 -14 -9
-18 -1 -5 -2 -11 -3 -15 -1 -5 -5 -2 -10 5 -7 11 -9 10 -14 -3 -4 -9 -3 -13 3
-10 6 3 10 1 10 -5 0 -7 7 -5 16 4 8 9 23 16 32 16 15 0 15 -2 2 -10 -8 -5
-11 -10 -7 -10 4 0 3 -9 -3 -20 -9 -16 -8 -18 5 -14 9 4 13 9 10 12 -3 3 2 16
10 29 9 13 12 23 8 22 -19 -3 -34 2 -29 10 3 4 -6 19 -19 31 -14 13 -25 18
-25 11z"/>
<path d="M2510 2514 c0 -8 5 -12 10 -9 6 4 8 11 5 16 -9 14 -15 11 -15 -7z"/>
<path d="M3480 2520 c0 -5 5 -10 11 -10 5 0 7 5 4 10 -3 6 -8 10 -11 10 -2 0
-4 -4 -4 -10z"/>
<path d="M3945 2520 c3 -5 1 -10 -4 -10 -6 0 -11 -7 -11 -15 0 -8 5 -15 10
-15 6 0 10 4 10 9 0 5 3 16 6 25 3 9 1 16 -6 16 -6 0 -8 -4 -5 -10z"/>
<path d="M4105 2520 c-3 -6 1 -7 9 -4 18 7 21 14 7 14 -6 0 -13 -4 -16 -10z"/>
<path d="M4369 2517 c7 -10 10 -17 7 -17 -4 0 2 -13 13 -29 12 -16 21 -34 21
-40 0 -6 4 -11 9 -11 5 0 11 -11 13 -25 3 -14 2 -25 -3 -25 -4 0 -9 10 -11 22
-3 21 -4 21 -18 7 -11 -12 -21 -14 -37 -8 -13 5 -23 6 -23 3 0 -4 -7 0 -17 7
-9 8 -18 13 -20 12 -1 -2 -8 -3 -14 -3 -8 0 -8 4 0 13 8 10 7 17 -2 27 -9 10
-9 11 1 6 22 -13 13 9 -10 23 -20 12 -21 12 -11 0 7 -9 8 -20 3 -29 -5 -8 -7
-17 -5 -20 1 -3 -4 -11 -12 -19 -13 -12 -14 -11 -9 7 5 16 3 20 -10 18 -10 -2
-21 -11 -26 -22 -6 -16 -7 -15 -5 6 1 14 8 25 17 25 22 1 41 15 35 26 -4 5
-13 5 -25 -1 -10 -5 -26 -7 -36 -3 -16 6 -16 7 0 19 16 11 16 13 -4 19 -26 8
-37 -1 -42 -35 -2 -16 2 -25 11 -25 28 0 20 -20 -16 -38 -26 -13 -39 -15 -47
-7 -6 7 -7 11 -1 10 6 -2 13 -1 18 0 4 1 12 3 19 4 25 3 17 24 -14 33 -18 5
-32 14 -31 20 1 5 -4 10 -12 10 -10 0 -11 -6 -4 -24 12 -33 11 -40 -3 -20 -10
12 -17 14 -28 7 -13 -9 -13 -12 3 -24 10 -8 14 -17 8 -20 -5 -4 -20 8 -32 25
-22 31 -23 31 -31 10 -5 -15 -12 -20 -20 -14 -7 4 -20 8 -28 10 -11 1 -9 -3 5
-16 11 -9 21 -23 23 -31 2 -8 7 -21 12 -30 8 -13 10 -13 15 3 4 9 1 24 -6 33
-10 12 -9 18 6 32 10 9 14 11 10 4 -4 -7 0 -21 9 -31 19 -21 13 -58 -13 -82
-21 -20 -35 -11 -25 15 7 18 -7 21 -23 5 -8 -8 -13 -8 -18 0 -3 6 4 15 17 20
13 6 18 10 12 10 -7 1 -14 12 -18 24 -3 13 -11 24 -18 24 -7 0 -20 2 -28 4
-11 3 -14 -3 -13 -21 1 -15 0 -18 -3 -7 -3 9 -9 15 -14 12 -5 -3 -7 -12 -4
-19 3 -7 -1 -16 -9 -19 -10 -4 -13 5 -12 40 1 47 -18 70 -45 53 -8 -5 -17 -7
-21 -4 -4 2 -10 0 -14 -6 -4 -6 -10 -8 -15 -5 -12 7 -19 -20 -9 -36 7 -11 9
-10 10 6 l0 20 8 -20 c13 -31 0 -41 -21 -16 -10 13 -15 27 -12 32 3 5 0 9 -7
9 -8 0 -7 5 2 17 10 12 10 14 1 9 -7 -4 -15 -1 -18 8 -3 9 -15 16 -25 16 -13
0 -17 -5 -12 -17 4 -11 8 -13 11 -5 4 14 22 6 22 -9 0 -6 -4 -7 -10 -4 -12 7
-12 -2 0 -30 6 -14 9 -15 10 -5 0 12 3 11 11 -3 5 -9 8 -21 5 -26 -3 -5 1 -14
9 -21 8 -7 12 -16 9 -21 -3 -5 0 -9 5 -9 6 0 11 -7 11 -15 0 -8 5 -15 11 -15
5 0 7 -5 3 -12 -4 -7 -3 -8 5 -4 9 6 9 11 0 22 -14 17 0 19 35 3 14 -7 23 -16
19 -22 -3 -5 -9 -4 -13 3 -4 7 -10 8 -13 3 -3 -5 3 -15 15 -22 11 -7 17 -8 14
-2 -4 5 3 15 15 21 15 8 19 9 15 1 -4 -6 -3 -11 3 -11 15 0 23 18 11 25 -13 8
-13 25 0 25 6 0 9 -3 8 -7 -4 -13 26 -53 38 -53 7 0 14 7 17 14 4 10 1 13 -7
10 -16 -6 -38 47 -26 66 5 9 9 9 14 1 4 -6 5 -15 1 -20 -9 -15 63 -60 86 -54
10 3 19 9 19 14 0 14 38 11 47 -3 4 -7 18 -19 31 -26 18 -10 22 -10 22 0 0 9
3 8 10 -2 9 -13 10 -13 10 0 0 12 10 16 43 15 50 -2 69 4 61 17 -4 6 5 3 19
-6 14 -10 37 -19 52 -22 25 -4 27 -3 22 22 l-5 28 18 -23 c10 -14 20 -19 23
-13 4 5 0 15 -8 22 -8 7 -15 17 -15 22 0 6 6 5 15 -2 8 -6 19 -9 25 -5 6 4 10
-7 10 -27 0 -22 3 -29 9 -19 13 19 52 5 44 -17 -6 -14 -5 -15 9 -2 14 13 14
16 0 26 -16 12 -27 48 -11 38 5 -3 7 -9 4 -14 -3 -5 4 -11 15 -15 11 -3 20
-10 20 -15 0 -5 6 -7 14 -4 9 3 12 12 8 22 -5 15 -4 15 11 3 9 -7 15 -16 13
-20 -3 -4 4 -8 15 -8 21 -2 26 13 7 20 -10 4 -10 7 0 18 9 10 12 10 12 0 0 -7
4 -10 9 -7 5 3 11 -1 15 -9 3 -10 19 -15 45 -15 22 0 43 -5 46 -10 4 -7 13 -7
26 0 20 11 26 30 8 30 -5 0 -8 -4 -5 -9 4 -5 -4 -7 -16 -3 l-22 5 23 9 c13 4
27 6 31 3 5 -3 10 0 13 7 2 7 2 2 0 -12 -3 -21 1 -26 20 -28 16 -1 28 6 35 21
9 18 11 19 11 5 1 -11 9 -18 22 -18 11 0 18 -4 15 -8 -3 -5 1 -9 7 -9 7 0 14
10 15 21 1 15 -1 17 -7 7 -6 -9 -11 -10 -15 -2 -6 10 6 15 27 12 4 0 7 4 7 11
0 6 6 3 14 -7 8 -11 12 -24 8 -30 -3 -5 1 -4 10 3 10 8 19 9 22 3 3 -5 0 -11
-6 -14 -7 -3 -3 -4 8 -4 15 1 20 6 16 17 -5 13 -4 13 12 1 9 -8 15 -20 12 -27
-7 -19 23 -5 34 16 12 22 -23 60 -36 39 -4 -8 -3 -10 4 -5 8 5 12 -1 12 -16 0
-21 -1 -21 -17 -5 -16 15 -16 18 2 37 20 22 36 26 33 8 -2 -8 7 -12 25 -10 15
2 27 -1 27 -8 0 -7 -9 -9 -22 -6 -13 3 -18 3 -11 0 7 -3 9 -12 6 -20 -5 -15
12 -20 21 -6 7 11 58 7 84 -7 18 -10 21 -9 16 4 -4 10 0 15 11 15 9 0 14 -4
11 -9 -4 -5 3 -7 15 -4 13 4 17 8 9 13 -8 5 -6 9 5 14 10 3 24 1 31 -5 8 -6
24 -9 36 -6 13 3 32 -1 43 -9 17 -13 18 -16 5 -24 -8 -5 -10 -10 -5 -10 26 0
37 17 26 39 -7 12 -8 21 -2 21 5 0 11 -5 13 -12 5 -13 38 -20 38 -8 0 5 -6 10
-12 13 -7 2 -10 8 -5 12 4 5 14 0 22 -11 11 -15 14 -16 15 -4 0 13 2 13 9 0 6
-8 7 -18 5 -22 -3 -4 2 -5 10 -2 9 4 16 1 16 -6 0 -10 3 -10 15 0 12 10 13 16
4 27 -7 8 -18 12 -25 9 -8 -3 -13 0 -11 7 1 7 -4 11 -11 9 -8 -1 -11 2 -7 8 5
8 11 7 21 -1 8 -6 14 -9 14 -6 0 9 47 -40 53 -55 4 -9 6 -8 6 3 1 9 8 20 17
23 13 5 15 2 11 -16 l-6 -23 18 22 19 23 17 -26 c13 -20 19 -23 25 -14 4 7 15
10 24 7 10 -4 16 -1 16 8 0 8 5 15 11 15 5 0 8 -4 5 -9 -3 -5 1 -11 9 -15 8
-3 17 -1 20 4 4 6 11 10 16 10 6 0 7 -4 4 -10 -3 -5 -1 -10 4 -10 6 0 16 8 22
19 10 15 16 16 41 7 23 -9 31 -8 38 4 9 14 11 13 14 -9 2 -19 16 -23 22 -7 5
13 9 14 20 5 11 -9 14 -9 14 0 0 7 5 9 12 5 8 -5 9 -1 4 12 -6 15 -5 17 5 7 7
-7 21 -13 32 -13 14 0 17 -5 12 -20 -3 -11 -2 -20 4 -20 10 0 26 38 23 55 -1
6 5 1 13 -9 8 -11 15 -23 15 -27 0 -14 32 -2 42 14 6 11 18 16 34 13 13 -3 24
-1 24 4 0 4 7 11 16 14 14 5 15 4 5 -8 -13 -16 1 -32 19 -21 6 3 10 1 10 -5 0
-6 5 -8 10 -5 6 4 8 10 6 14 -3 4 1 8 9 8 8 0 12 -4 9 -9 -3 -4 0 -8 6 -8 6 0
8 -4 5 -10 -4 -6 1 -7 11 -3 12 4 15 3 10 -5 -5 -8 -2 -10 9 -6 11 5 13 10 5
19 -7 9 -7 15 -1 19 5 4 12 2 16 -4 4 -6 11 -7 17 -4 6 4 8 2 4 -4 -3 -6 7
-17 23 -25 27 -13 30 -13 34 4 3 11 11 19 17 19 10 0 10 -3 0 -15 -10 -12 -9
-15 6 -15 27 0 69 25 66 38 -1 7 2 12 8 12 5 0 10 -5 10 -11 0 -8 6 -7 17 2
11 10 14 10 9 2 -4 -8 -2 -13 4 -13 6 0 8 -6 5 -12 -4 -7 3 -2 14 11 12 13 21
21 21 17 0 -3 11 -1 24 4 20 7 23 6 19 -9 -3 -14 2 -17 34 -16 21 1 48 -4 60
-12 21 -12 22 -12 18 25 -4 29 -2 33 6 20 11 -21 49 -24 49 -5 0 8 3 7 10 -3
5 -9 22 -13 44 -12 20 2 36 -2 36 -8 0 -5 7 -10 15 -10 18 0 19 12 3 28 -9 9
-9 12 1 12 7 0 9 5 6 10 -4 6 -10 8 -15 5 -5 -3 -7 3 -5 15 2 11 0 22 -6 25
-5 4 -9 2 -9 -3 0 -5 -6 -9 -14 -9 -10 0 -5 9 12 26 28 27 44 32 23 8 -9 -11
-8 -17 4 -27 8 -7 13 -16 10 -20 -7 -11 19 -30 31 -22 14 10 11 31 -5 41 -8 5
-11 16 -8 25 4 9 1 16 -6 16 -7 0 -1 9 12 19 15 11 20 21 13 25 -6 3 -15 -1
-20 -10 -5 -9 -14 -14 -20 -10 -11 7 -5 43 9 52 5 3 6 -3 2 -13 -6 -16 -5 -16
11 -4 12 10 14 16 5 21 -8 6 -8 9 0 14 13 9 5 26 -12 26 -8 0 -8 -3 1 -9 10
-6 7 -12 -13 -25 -14 -10 -23 -22 -19 -28 5 -8 1 -9 -12 -4 -10 5 -24 9 -31 9
-7 0 -10 4 -8 8 3 4 13 5 24 2 13 -3 20 2 24 18 4 13 4 25 2 28 -3 2 -5 -2 -6
-10 0 -9 -4 -6 -10 6 -8 17 -9 16 -6 -7 4 -23 2 -26 -14 -18 -26 15 -28 13
-23 -25 3 -27 1 -35 -11 -35 -9 0 -13 4 -10 10 3 5 1 18 -4 27 -10 17 -11 16
-17 -4 -3 -13 -10 -20 -15 -17 -5 3 -7 10 -3 15 3 6 -3 5 -14 -2 -11 -7 -18
-18 -15 -25 2 -6 0 -14 -5 -18 -5 -3 -8 8 -7 24 1 17 -3 30 -8 30 -5 0 -7 -9
-4 -21 3 -13 1 -19 -6 -16 -7 2 -11 11 -9 19 1 8 -4 15 -13 15 -8 0 -11 -5 -8
-10 4 -6 1 -7 -6 -3 -7 5 -16 19 -21 32 -5 13 -14 24 -20 24 -7 0 -8 -6 0 -19
13 -26 13 -41 -1 -18 -8 14 -14 16 -25 6 -11 -9 -15 -8 -20 4 -3 9 -12 13 -21
10 -9 -4 -14 -2 -10 3 3 5 -3 10 -14 10 -25 0 -24 -8 4 -26 20 -13 26 -15 44
-19 4 0 2 -6 -4 -12 -6 -6 -9 -17 -7 -24 3 -6 -2 -12 -10 -12 -11 0 -12 5 -6
17 12 22 1 33 -17 18 -10 -8 -12 -8 -8 3 3 8 -4 20 -14 26 -16 10 -23 10 -36
-3 -8 -8 -15 -11 -15 -5 0 19 -20 12 -29 -11 -6 -17 -9 -18 -14 -5 -7 18 -35
16 -48 -4 -6 -10 -9 -10 -9 -1 0 14 -21 12 -32 -3 -4 -5 -8 -1 -8 10 0 17 -2
17 -10 5 -8 -12 -10 -11 -10 7 0 12 5 25 10 28 6 4 9 1 8 -6 -2 -7 5 -15 15
-17 16 -3 17 -1 7 18 -6 12 -17 19 -25 17 -7 -3 -17 -1 -23 5 -8 8 -17 4 -33
-16 -17 -21 -24 -24 -30 -14 -6 10 -11 10 -20 1 -6 -6 -19 -9 -28 -6 -14 4
-13 2 2 -10 18 -15 24 -33 8 -22 -5 3 -12 1 -16 -5 -3 -5 -11 -10 -18 -10 -6
0 -2 6 8 14 18 13 18 14 -3 25 -19 10 -22 9 -22 -10 l0 -21 -35 21 c-21 12
-35 16 -35 9 0 -7 -7 -3 -15 8 -14 18 -16 18 -29 1 -9 -12 -16 -14 -21 -8 -3
6 -12 11 -18 11 -8 0 -8 -3 1 -9 10 -6 10 -10 -3 -21 -8 -7 -15 -9 -15 -4 0 4
-5 3 -12 -4 -9 -9 -9 -15 -1 -23 8 -8 15 -5 26 11 12 18 19 20 35 11 26 -14
43 -14 20 0 -17 10 -14 39 4 39 6 0 8 -7 5 -15 -4 -8 -1 -17 5 -21 7 -4 8 -3
4 4 -9 15 23 4 45 -15 9 -7 19 -10 22 -6 4 3 7 1 7 -6 0 -7 9 -9 25 -5 16 4
25 2 25 -6 0 -6 5 -8 12 -4 6 4 8 3 4 -4 -3 -6 2 -15 11 -21 10 -6 14 -11 9
-11 -6 0 -20 10 -33 21 l-22 22 -21 -24 -21 -24 7 24 c4 16 3 21 -5 17 -6 -4
-11 -2 -11 5 0 7 -3 9 -7 6 -3 -4 -12 1 -18 10 -11 15 -15 15 -29 4 -9 -8 -19
-11 -22 -8 -3 3 -21 -3 -40 -14 -29 -16 -35 -17 -40 -4 -3 8 -15 17 -26 21
-15 4 -17 9 -9 17 18 18 13 27 -14 27 -18 0 -25 -5 -25 -20 0 -11 -4 -20 -8
-20 -5 0 -7 14 -6 30 2 27 0 29 -13 18 -9 -7 -21 -13 -27 -14 -6 0 -17 -2 -24
-2 -8 -1 -10 -7 -6 -14 4 -7 4 -10 -1 -6 -4 4 -17 3 -27 -3 -16 -9 -19 -8 -15
3 2 7 9 12 15 11 5 -1 12 6 15 16 3 14 0 17 -14 14 -10 -3 -24 -11 -30 -19 -6
-8 -18 -14 -27 -14 -12 0 -12 4 4 21 19 21 19 21 -6 17 -20 -2 -24 -8 -22 -28
1 -18 -1 -21 -7 -11 -5 8 -14 10 -22 5 -10 -6 -9 -1 2 17 16 24 16 24 -17 25
-18 0 -31 -3 -28 -8 3 -5 9 -6 14 -3 19 11 18 -13 0 -30 -12 -10 -20 -13 -20
-7 0 7 5 12 12 12 21 0 -7 21 -31 23 -11 1 -21 5 -21 9 0 16 -32 -6 -41 -28
-10 -27 -29 -32 -29 -9 0 8 -4 15 -10 15 -13 0 -12 -11 4 -32 7 -10 22 -16 34
-13 28 5 28 -1 1 -15 -15 -9 -24 -8 -35 0 -7 7 -20 10 -29 7 -8 -4 -17 -2 -20
3 -4 6 1 10 9 10 20 0 20 11 0 36 -15 18 -15 18 -9 -3 7 -27 0 -29 -22 -8 -17
18 -37 10 -29 -12 4 -9 2 -11 -6 -7 -8 5 -9 2 -5 -9 10 -26 -7 -20 -18 6 -11
25 -54 32 -62 11 -3 -8 -9 -11 -14 -8 -5 3 -9 -4 -9 -15 0 -11 5 -23 10 -26
13 -8 13 -25 0 -25 -6 0 -15 12 -20 26 -6 14 -14 23 -20 19 -5 -3 -7 -12 -3
-20 3 -8 0 -15 -6 -15 -22 0 -10 29 24 59 39 34 42 41 19 41 -9 0 -23 8 -31
18 -13 15 -13 15 -3 -5 6 -14 7 -23 1 -23 -5 0 -12 -14 -16 -31 -7 -33 -30
-48 -47 -31 -6 6 -6 12 3 17 8 6 10 4 4 -6 -5 -10 -5 -11 2 -4 6 6 13 21 17
35 3 14 3 19 0 12 -3 -6 -11 -9 -16 -6 -7 4 -8 2 -4 -4 4 -7 3 -12 -3 -12 -5
0 -13 5 -16 10 -3 6 -11 10 -18 10 -6 0 -3 -6 8 -13 11 -9 14 -16 7 -21 -6 -3
-13 -2 -17 4 -9 15 -25 12 -25 -6 0 -8 4 -13 10 -9 5 3 17 -6 26 -20 14 -21
15 -28 4 -38 -9 -8 -11 -9 -6 0 10 17 -5 45 -21 39 -8 -3 -24 6 -37 20 l-22
26 0 -25 c0 -20 3 -24 13 -15 8 7 13 7 13 0 0 -5 -7 -13 -16 -16 -21 -8 -24
-8 -24 5 0 15 -23 35 -37 33 -7 -1 -18 -2 -24 -3 -7 0 -8 -8 -4 -18 4 -10 8
-24 8 -30 0 -7 4 -13 9 -13 15 0 8 -28 -8 -34 -9 -4 -14 -13 -10 -21 4 -13 2
-13 -14 -5 -20 11 -37 31 -23 29 24 -4 41 3 39 16 -1 9 -5 15 -9 15 -4 0 -12
0 -18 0 -5 0 -7 -5 -3 -12 5 -7 3 -8 -6 -3 -10 6 -8 12 8 26 23 18 30 35 10
23 -6 -4 -8 -3 -5 4 14 21 -4 40 -36 38 -25 -1 -32 -6 -32 -21 0 -16 -6 -20
-27 -18 -34 2 -36 -10 -6 -31 18 -13 19 -16 5 -16 -9 0 -17 5 -17 11 0 5 -4 8
-9 4 -6 -3 -8 10 -5 29 3 30 1 34 -15 31 -11 -2 -22 3 -25 12 -5 12 -9 13 -21
3 -9 -7 -18 -10 -22 -7 -3 4 2 9 11 13 9 3 13 10 10 15 -3 6 0 18 8 27 12 15
11 16 -4 3 -17 -12 -23 -9 -19 12 1 5 -3 6 -9 2 -8 -5 -8 -11 0 -20 7 -9 6
-16 -4 -24 -8 -7 -13 -23 -11 -36 1 -14 -2 -22 -7 -19 -5 3 -7 12 -4 20 3 8
-1 14 -10 14 -9 0 -12 -5 -8 -12 4 -7 3 -8 -4 -4 -7 4 -12 2 -12 -3 0 -6 -3
-10 -7 -10 -21 3 -31 -3 -36 -21 -5 -20 -27 -28 -27 -10 0 6 4 10 10 10 5 0 7
7 4 15 -4 8 -9 13 -13 11 -4 -3 -7 4 -8 14 -1 10 4 21 12 24 9 3 12 -1 10 -15
-2 -10 0 -19 6 -19 5 0 9 6 9 13 0 8 4 7 10 -3 8 -13 10 -13 10 1 0 9 -7 20
-16 23 -8 3 -12 10 -9 16 4 6 -1 7 -11 3 -13 -5 -15 -3 -9 7 5 9 4 11 -3 6 -7
-4 -12 -2 -12 4 0 6 -5 8 -11 5 -6 -5 -4 -12 8 -21 11 -8 13 -13 6 -14 -7 0
-13 -7 -13 -15 0 -9 -6 -12 -15 -9 -10 4 -15 0 -15 -11 0 -10 5 -13 12 -9 7 4
8 3 4 -4 -5 -9 -13 -9 -27 -2 -24 14 -24 27 1 40 23 13 27 35 4 26 -10 -4 -13
-2 -8 7 6 8 3 8 -9 -1 -9 -8 -25 -11 -37 -7 -11 4 -20 2 -20 -4 0 -6 -5 -11
-11 -11 -5 0 -8 4 -4 9 3 5 -2 16 -10 25 -9 8 -16 19 -16 23 0 4 -2 10 -4 11
-9 10 3 -28 13 -40 6 -8 9 -18 5 -21 -3 -4 2 -9 11 -13 9 -3 13 -10 10 -15 -3
-5 -13 -2 -22 8 -9 9 -15 19 -14 21 2 3 -2 8 -10 13 -7 4 -13 16 -13 25 0 10
-7 20 -15 22 -13 5 -13 3 -1 -11z m1866 -28 c-4 -5 -7 -28 -7 -52 -1 -23 -3
-34 -6 -24 -2 9 -8 15 -13 12 -5 -4 -9 -1 -9 4 0 6 5 11 10 11 7 0 7 7 0 21
-9 15 -8 24 0 35 13 15 34 9 25 -7z m-723 -30 c-10 -10 -21 -13 -27 -7 -11 10
7 25 30 25 12 0 11 -4 -3 -18z m-310 -11 c-7 -7 -12 -8 -12 -2 0 14 12 26 19
19 2 -3 -1 -11 -7 -17z m1185 -10 c-3 -7 -5 -2 -5 12 0 14 2 19 5 13 2 -7 2
-19 0 -25z m40 -9 c-10 -16 -13 -17 -20 -3 -5 9 -6 18 -3 21 3 4 6 1 6 -6 0
-7 4 -10 10 -6 5 3 7 13 4 23 -5 14 -4 14 4 3 7 -10 7 -20 -1 -32z m-1942 21
c3 -6 -1 -7 -9 -4 -18 7 -21 14 -7 14 6 0 13 -4 16 -10z m1289 1 c3 -5 0 -14
-7 -19 -10 -8 -13 -6 -14 9 -2 19 11 26 21 10z m567 -14 c-10 -9 -11 -8 -5 6
3 10 9 15 12 12 3 -3 0 -11 -7 -18z m-1060 -14 c-7 -27 -31 -45 -31 -23 0 6 5
8 11 5 6 -4 10 -1 8 6 -3 25 1 39 10 39 5 0 6 -12 2 -27z m1318 11 c4 3 8 -1
8 -9 0 -11 -4 -12 -14 -4 -7 6 -13 17 -12 23 0 7 2 6 6 -2 2 -6 8 -10 12 -8z
m-994 -4 c-3 -5 -1 -10 6 -10 7 0 9 -3 6 -7 -4 -3 -3 -11 1 -18 4 -6 -1 -2
-12 10 -20 22 -25 23 -36 5 -5 -8 -9 -7 -13 3 -4 11 0 15 13 12 11 -2 22 0 25
6 4 5 8 9 11 9 3 0 2 -4 -1 -10z m965 0 c0 -4 -7 -7 -15 -6 -23 3 -26 12 -5
13 11 1 20 -2 20 -7z m-891 -17 c0 -12 -2 -13 -6 -5 -4 10 -8 10 -19 1 -12
-10 -13 -9 -8 5 8 21 34 21 33 -1z m511 7 c0 -5 -2 -10 -4 -10 -3 0 -8 5 -11
10 -3 6 -1 10 4 10 6 0 11 -4 11 -10z m620 -8 c0 -12 -3 -12 -15 -2 -8 7 -15
13 -15 15 0 1 7 2 15 2 8 0 15 -7 15 -15z m-3010 4 c0 -3 -4 -8 -10 -11 -5 -3
-10 -1 -10 4 0 6 5 11 10 11 6 0 10 -2 10 -4z m683 -15 c3 -13 0 -18 -7 -15
-7 3 -13 11 -13 19 0 22 14 18 20 -4z m414 3 c12 -11 13 -18 4 -27 -16 -16
-38 -17 -38 -1 0 7 3 13 6 12 19 -2 22 4 11 17 -16 20 -3 19 17 -1z m91 -29
c-10 -11 -28 10 -28 34 0 11 5 9 19 -5 12 -12 15 -23 9 -29z m367 14 c-9 -17
-19 -28 -22 -25 -8 8 17 56 29 56 5 0 1 -14 -7 -31z m442 14 c0 -9 -4 -10 -14
-2 -7 6 -13 12 -13 14 0 1 6 2 13 2 8 0 14 -6 14 -14z m73 7 c0 -5 -2 -10 -4
-10 -3 0 -8 5 -11 10 -3 6 -1 10 4 10 6 0 11 -4 11 -10z m493 -11 c-8 -8 -13
-7 -18 2 -5 8 -4 10 3 5 7 -4 12 -2 12 5 0 7 3 9 7 6 4 -4 2 -12 -4 -18z
m-636 -4 c0 -8 -4 -12 -9 -9 -4 3 -8 9 -8 15 0 5 4 9 8 9 5 0 9 -7 9 -15z
m683 0 c0 -12 -19 -12 -23 0 -4 9 -1 12 9 8 7 -3 14 -7 14 -8z m173 0 c-3 -9
-8 -14 -10 -11 -3 3 -2 9 2 15 9 16 15 13 8 -4z m147 -6 c0 -6 -4 -7 -10 -4
-5 3 -10 11 -10 16 0 6 5 7 10 4 6 -3 10 -11 10 -16z m-2656 -13 c-3 -9 -10
-14 -14 -11 -5 3 -6 -4 -3 -15 3 -11 0 -20 -6 -20 -18 0 -13 41 6 56 21 15 26
13 17 -10z m96 14 c0 -5 -4 -10 -10 -10 -5 0 -10 5 -10 10 0 6 5 10 10 10 6 0
10 -4 10 -10z m131 -7 c13 -16 12 -17 -3 -4 -17 13 -22 21 -14 21 2 0 10 -8
17 -17z m281 -23 c6 0 22 9 34 21 16 15 24 17 29 8 6 -8 4 -10 -5 -4 -9 6 -10
1 -5 -16 4 -17 3 -20 -3 -10 -8 11 -12 9 -22 -8 -8 -17 -15 -20 -24 -12 -7 6
-16 7 -20 3 -4 -4 -6 0 -4 8 2 8 -2 14 -9 13 -9 -2 -10 11 -3 37 1 3 5 -5 10
-17 5 -13 15 -23 22 -23z m716 3 c-15 -18 -21 -9 -13 18 6 16 9 18 16 8 4 -8
3 -19 -3 -26z m156 -22 c-3 -3 -9 1 -14 9 -6 8 -10 12 -10 8 0 -5 -8 0 -18 10
-31 28 -14 34 18 5 17 -14 28 -29 24 -32z m1091 49 c-3 -5 -11 -10 -16 -10 -6
0 -7 5 -4 10 3 6 11 10 16 10 6 0 7 -4 4 -10z m139 -5 c-4 -8 -8 -15 -10 -15
-2 0 -4 7 -4 15 0 8 4 15 10 15 5 0 7 -7 4 -15z m86 5 c0 -5 -2 -10 -4 -10 -3
0 -8 5 -11 10 -3 6 -1 10 4 10 6 0 11 -4 11 -10z m-2519 -17 c12 -16 12 -17
-2 -6 -9 7 -20 9 -24 5 -5 -4 -5 -1 -1 6 9 16 11 15 27 -5z m422 -3 c3 -11 1
-18 -4 -14 -5 3 -9 12 -9 20 0 20 7 17 13 -6z m474 13 c-4 -3 -2 -12 4 -19 10
-13 -6 -32 -18 -20 -4 3 0 6 8 6 12 0 12 2 0 9 -12 8 -8 31 6 31 4 0 3 -3 0
-7z m450 1 c-3 -3 -12 -4 -19 -1 -8 3 -5 6 6 6 11 1 17 -2 13 -5z m1053 -21
c24 -25 24 -26 3 -14 -13 6 -23 17 -23 24 0 7 -4 6 -10 -3 -8 -13 -11 -13 -22
-1 -10 10 -10 12 0 7 6 -4 12 -2 12 3 0 18 13 12 40 -16z m-2824 5 c3 -4 -1
-5 -10 -4 -8 1 -18 5 -22 8 -3 4 1 5 10 4 8 -1 18 -5 22 -8z m312 -9 c-19 -13
-28 -11 -28 5 0 9 7 12 21 9 16 -4 17 -8 7 -14z m147 12 c3 -5 2 -12 -3 -15
-5 -3 -9 1 -9 9 0 17 3 19 12 6z m90 0 c3 -5 1 -12 -5 -16 -5 -3 -10 1 -10 9
0 18 6 21 15 7z m358 -10 c-4 -3 -11 -10 -15 -15 -4 -4 -6 1 -5 12 1 12 6 18
15 15 7 -3 10 -9 5 -12z m752 -1 c-3 -4 2 -13 10 -20 8 -7 12 -17 9 -22 -4 -5
-15 4 -25 21 -23 38 -23 42 -4 35 8 -4 13 -10 10 -14z m291 -6 c1 -9 0 -13 -4
-10 -3 4 -7 14 -8 22 -1 9 0 13 4 10 3 -4 7 -14 8 -22z m164 11 c0 -9 -6 -12
-15 -9 -8 4 -12 10 -9 15 8 14 24 10 24 -6z m90 5 c0 -5 -5 -10 -11 -10 -5 0
-7 5 -4 10 3 6 8 10 11 10 2 0 4 -4 4 -10z m-1265 -10 c3 -5 1 -10 -4 -10 -6
0 -11 5 -11 10 0 6 2 10 4 10 3 0 8 -4 11 -10z m278 1 c4 -1 7 -5 7 -10 0 -12
-27 -8 -41 6 -9 9 -7 11 7 8 11 -2 22 -4 27 -4z m47 3 c0 -8 -19 -13 -24 -6
-3 5 1 9 9 9 8 0 15 -2 15 -3z m162 -16 c-7 -7 -12 -8 -12 -2 0 14 12 26 19
19 2 -3 -1 -11 -7 -17z m455 7 c0 -8 -4 -12 -9 -9 -4 3 -8 9 -8 15 0 5 4 9 8
9 5 0 9 -7 9 -15z m394 -8 c-10 -9 -11 -8 -5 6 3 10 9 15 12 12 3 -3 0 -11 -7
-18z m230 6 c13 -16 12 -17 -3 -4 -10 7 -18 15 -18 17 0 8 8 3 21 -13z m-1996
-11 c-3 -3 -11 0 -18 7 -9 10 -8 11 6 5 10 -3 15 -9 12 -12z m90 7 c10 -16 -3
-23 -18 -11 -8 7 -18 8 -22 4 -5 -4 -5 -1 -1 6 9 15 32 16 41 1z m791 -16 c-7
-7 -26 7 -26 19 0 6 6 6 15 -2 9 -7 13 -15 11 -17z m1354 17 c0 -5 -5 -10 -11
-10 -5 0 -7 5 -4 10 3 6 8 10 11 10 2 0 4 -4 4 -10z m181 -3 c-6 -8 -7 -18 -3
-22 4 -5 1 -5 -6 -1 -10 6 -10 11 -1 22 6 8 14 14 16 14 3 0 0 -6 -6 -13z
m-1381 -1 c0 -3 -4 -8 -10 -11 -5 -3 -10 -1 -10 4 0 6 5 11 10 11 6 0 10 -2
10 -4z m595 -15 c-3 -6 -11 -8 -17 -5 -6 4 -5 9 3 15 16 10 23 4 14 -10z m331
8 c3 -6 -1 -17 -10 -25 -9 -8 -11 -9 -6 -2 19 22 10 31 -11 12 -22 -19 -22
-19 -8 4 15 24 24 27 35 11z m324 -5 c0 -2 -7 -4 -15 -4 -8 0 -15 4 -15 10 0
5 7 7 15 4 8 -4 15 -8 15 -10z m-2490 -14 c5 8 9 7 14 -5 3 -9 11 -13 17 -9 7
4 9 3 6 -4 -6 -8 -42 -10 -42 -2 0 1 -8 3 -18 5 -25 5 -31 11 -22 24 4 8 12 6
22 -5 11 -11 18 -12 23 -4z m40 10 c0 -5 -2 -10 -4 -10 -3 0 -8 5 -11 10 -3 6
-1 10 4 10 6 0 11 -4 11 -10z m125 -4 c12 -12 12 -15 1 -19 -16 -7 -26 1 -26
20 0 17 8 17 25 -1z m559 -1 c-7 -17 -34 -21 -34 -4 0 5 4 8 9 4 5 -3 12 -1
16 5 9 15 15 12 9 -5z m1789 1 c3 -8 -2 -20 -11 -27 -14 -11 -15 -11 -5 0 6 7
9 20 6 27 -3 8 -3 14 0 14 3 0 7 -6 10 -14z m-1473 -4 c0 -5 -7 -9 -15 -9 -8
0 -12 4 -9 9 3 4 9 8 15 8 5 0 9 -4 9 -8z m580 -7 c-7 -8 -17 -12 -23 -8 -6 4
-3 9 9 14 27 11 28 11 14 -6z m50 0 c7 -8 8 -15 2 -15 -5 0 -15 7 -22 15 -7 8
-8 15 -2 15 5 0 15 -7 22 -15z m-1590 -5 c0 -5 -2 -10 -4 -10 -3 0 -8 5 -11
10 -3 6 -1 10 4 10 6 0 11 -4 11 -10z m1823 -4 c3 -8 0 -16 -6 -19 -7 -3 -13
3 -13 14 0 22 12 25 19 5z m289 -3 c-6 -3 -10 -9 -7 -14 4 -5 -1 -6 -10 -3
-14 6 -14 8 2 19 10 8 20 11 23 8 3 -3 -1 -8 -8 -10z m-1196 0 c-3 -4 -17 -8
-29 -10 -17 -2 -19 -1 -7 7 17 11 47 14 36 3z m1361 -15 c-3 -8 -6 -5 -6 6 -1
11 2 17 5 13 3 -3 4 -12 1 -19z m110 -4 c-9 -9 -28 6 -21 18 4 6 10 6 17 -1 6
-6 8 -13 4 -17z m-2273 8 c3 -5 -1 -9 -9 -9 -8 0 -15 4 -15 9 0 4 4 8 9 8 6 0
12 -4 15 -8z m2076 -16 c0 -2 -7 -7 -16 -10 -8 -3 -12 -2 -9 4 6 10 25 14 25
6z"/>
<path d="M6215 2489 c-4 -6 -5 -12 -2 -15 2 -3 7 2 10 11 7 17 1 20 -8 4z"/>
<path d="M6070 2519 c0 -5 5 -7 10 -4 6 3 10 8 10 11 0 2 -4 4 -10 4 -5 0 -10
-5 -10 -11z"/>
<path d="M6950 2523 c0 -5 4 -14 9 -21 7 -11 9 -11 14 1 3 8 3 18 0 21 -9 8
-23 7 -23 -1z"/>
<path d="M2426 2511 c-3 -5 1 -11 9 -14 9 -4 12 -1 8 9 -6 16 -10 17 -17 5z"/>
<path d="M4060 2515 c0 -2 6 -8 13 -14 10 -8 14 -7 14 2 0 8 -6 14 -14 14 -7
0 -13 -1 -13 -2z"/>
<path d="M4521 2513 c-1 -17 16 -25 25 -12 4 7 3 9 -4 5 -5 -3 -13 0 -15 6 -4
9 -6 10 -6 1z"/>
<path d="M4800 2503 c0 -23 -30 -27 -31 -4 0 9 -5 3 -11 -12 -8 -21 -7 -32 2
-40 10 -9 11 -9 5 2 -6 11 -4 13 9 8 10 -4 19 -1 22 8 7 18 46 14 68 -7 9 -9
23 -15 32 -11 22 8 11 28 -15 26 -12 -2 -20 2 -18 10 1 6 -5 12 -14 12 -9 0
-24 6 -33 14 -14 12 -16 11 -16 -6z"/>
<path d="M6015 2510 c-3 -5 -2 -10 4 -10 5 0 13 5 16 10 3 6 2 10 -4 10 -5 0
-13 -4 -16 -10z"/>
<path d="M6290 2510 c0 -5 4 -10 9 -10 6 0 13 5 16 10 3 6 -1 10 -9 10 -9 0
-16 -4 -16 -10z"/>
<path d="M7306 2511 c-4 -5 -2 -12 3 -15 5 -4 12 -2 15 3 4 5 2 12 -3 15 -5 4
-12 2 -15 -3z"/>
<path d="M7424 2512 c3 -5 0 -13 -6 -15 -9 -4 -10 -6 -1 -6 17 -1 25 16 12 25
-7 4 -9 3 -5 -4z"/>
<path d="M2470 2499 c0 -7 -7 -17 -16 -23 -14 -10 -13 -14 6 -31 l21 -19 -6
27 c-6 21 -4 27 9 27 10 0 13 6 10 15 -7 18 -24 20 -24 4z"/>
<path d="M3347 2503 c-12 -11 -8 -23 8 -23 8 0 15 7 15 15 0 16 -12 20 -23 8z"/>
<path d="M4011 2501 c-8 -5 -9 -11 -3 -15 5 -3 12 1 16 9 6 17 6 18 -13 6z"/>
<path d="M4300 2498 c0 -10 5 -18 11 -18 10 0 8 -12 -9 -60 -3 -8 -2 -12 3 -8
4 4 15 2 23 -4 13 -11 14 -8 11 23 -5 36 8 46 28 24 4 -4 2 -5 -4 -1 -8 4 -13
1 -13 -8 0 -10 6 -13 15 -10 8 4 15 9 15 13 -1 14 -26 36 -40 36 -8 0 -20 6
-27 15 -11 13 -12 13 -13 -2z"/>
<path d="M5015 2500 c-3 -5 -1 -10 4 -10 6 0 11 5 11 10 0 6 -2 10 -4 10 -3 0
-8 -4 -11 -10z"/>
<path d="M5063 2492 c1 -14 5 -18 11 -12 7 7 6 14 -1 21 -9 9 -12 7 -10 -9z"/>
<path d="M6100 2498 c0 -4 4 -8 9 -8 6 0 12 4 15 8 3 5 -1 9 -9 9 -8 0 -15 -4
-15 -9z"/>
<path d="M6330 2497 c0 -7 9 -13 20 -13 11 0 20 1 20 3 0 1 -9 7 -20 13 -15 8
-20 8 -20 -3z"/>
<path d="M7506 2498 c3 -4 9 -8 15 -8 5 0 9 4 9 8 0 5 -7 9 -15 9 -8 0 -12 -4
-9 -9z"/>
<path d="M3633 2487 c-3 -5 1 -13 8 -18 8 -5 10 -9 4 -9 -5 0 -3 -5 5 -10 11
-7 11 -10 2 -10 -7 0 -10 -5 -7 -10 4 -6 11 -8 16 -5 5 4 9 1 9 -6 0 -7 3 -10
6 -7 3 4 -1 19 -10 36 -10 19 -12 32 -5 39 6 6 4 10 -6 10 -9 0 -19 -5 -22
-10z"/>
<path d="M3717 2493 c-12 -12 -7 -22 8 -17 8 4 15 10 15 15 0 11 -14 12 -23 2z"/>
<path d="M3856 2489 c2 -5 12 -5 21 -2 11 4 14 3 9 -5 -4 -7 -2 -12 6 -12 7 0
1 -11 -13 -23 -14 -13 -26 -32 -26 -42 0 -15 6 -11 29 15 31 38 34 53 16 67
-15 12 -49 13 -42 2z"/>
<path d="M4100 2491 c0 -6 9 -15 20 -21 13 -7 20 -7 20 -1 0 6 -9 15 -20 21
-13 7 -20 7 -20 1z"/>
<path d="M4655 2478 c2 -10 -1 -21 -6 -24 -5 -3 -9 -11 -9 -17 1 -7 6 -6 13 4
7 9 16 16 22 17 5 0 11 6 14 13 2 8 -2 10 -12 6 -9 -3 -18 -1 -20 6 -2 7 -3 4
-2 -5z"/>
<path d="M4937 2487 c-3 -8 1 -14 9 -14 16 0 19 13 5 21 -5 3 -11 0 -14 -7z"/>
<path d="M5260 2490 c0 -5 5 -10 10 -10 6 0 10 5 10 10 0 6 -4 10 -10 10 -5 0
-10 -4 -10 -10z"/>
<path d="M5415 2490 c-3 -5 -1 -10 4 -10 6 0 11 5 11 10 0 6 -2 10 -4 10 -3 0
-8 -4 -11 -10z"/>
<path d="M6050 2491 c0 -5 5 -13 10 -16 6 -3 10 -2 10 4 0 5 -4 13 -10 16 -5
3 -10 2 -10 -4z"/>
<path d="M7055 2490 c-4 -6 -10 -8 -15 -5 -5 3 -11 1 -14 -4 -4 -5 -2 -12 3
-15 5 -4 12 -2 16 4 4 6 11 8 16 5 5 -4 9 1 9 9 0 18 -6 21 -15 6z"/>
<path d="M7461 2480 c14 -31 19 -36 19 -24 0 6 -7 19 -16 30 -14 18 -14 18 -3
-6z"/>
<path d="M3776 2473 c-6 -14 -9 -15 -15 -4 -7 10 -10 10 -16 1 -14 -23 11 -31
30 -10 10 11 16 23 13 25 -3 3 -9 -2 -12 -12z"/>
<path d="M6666 2478 c3 -5 10 -6 15 -3 13 9 11 12 -6 12 -8 0 -12 -4 -9 -9z"/>
<path d="M2534 2455 c1 -27 4 -29 24 -16 11 6 10 11 -3 25 -22 21 -23 21 -21
-9z"/>
<path d="M3960 2473 c0 -7 -6 -10 -14 -7 -15 6 -43 -33 -32 -44 3 -3 6 -1 6 4
0 5 4 15 9 23 8 12 12 11 27 -4 21 -20 31 -5 15 22 -6 10 -11 13 -11 6z"/>
<path d="M4035 2470 c3 -5 8 -10 11 -10 2 0 4 5 4 10 0 6 -5 10 -11 10 -5 0
-7 -4 -4 -10z"/>
<path d="M5306 2465 c-3 -8 -1 -17 3 -20 5 -3 11 2 15 10 3 8 1 17 -3 20 -5 3
-11 -2 -15 -10z"/>
<path d="M3850 2455 c7 -8 17 -12 22 -9 6 4 5 10 -3 15 -22 14 -33 10 -19 -6z"/>
<path d="M4816 2457 c-17 -13 -18 -16 -5 -35 19 -27 36 -15 29 21 -5 26 -7 27
-24 14z m14 -27 c0 -5 -2 -10 -4 -10 -3 0 -8 5 -11 10 -3 6 -1 10 4 10 6 0 11
-4 11 -10z"/>
<path d="M6875 2461 c-6 -11 20 -33 28 -24 4 3 7 10 7 14 0 11 -29 19 -35 10z"/>
<path d="M7006 2444 c-15 -10 -15 -13 1 -25 11 -9 14 -10 9 -1 -8 13 15 17 28
5 3 -4 14 -8 22 -9 9 -1 13 0 10 3 -3 4 1 15 11 25 9 10 13 18 8 18 -4 0 -16
-10 -26 -22 -11 -11 -19 -17 -19 -12 0 6 5 15 10 20 14 14 -34 13 -54 -2z"/>
<path d="M2576 2435 c-3 -8 -1 -15 4 -15 6 0 10 7 10 15 0 8 -2 15 -4 15 -2 0
-6 -7 -10 -15z"/>
<path d="M4940 2439 c0 -5 5 -7 10 -4 6 3 10 8 10 11 0 2 -4 4 -10 4 -5 0 -10
-5 -10 -11z"/>
<path d="M2496 2431 c-3 -5 1 -11 9 -15 8 -3 15 -1 15 4 0 13 -18 22 -24 11z"/>
<path d="M7310 2430 c0 -5 5 -10 11 -10 5 0 7 5 4 10 -3 6 -8 10 -11 10 -2 0
-4 -4 -4 -10z"/>
<path d="M2385 2420 c3 -5 8 -10 11 -10 2 0 4 5 4 10 0 6 -5 10 -11 10 -5 0
-7 -4 -4 -10z"/>
<path d="M4355 2420 c-8 -13 23 -20 34 -6 7 8 5 12 -9 13 -11 1 -22 -2 -25 -7z"/>
<path d="M7340 2416 c0 -2 7 -7 16 -10 8 -3 12 -2 9 4 -6 10 -25 14 -25 6z"/>
<path d="M7420 2410 c-8 -5 -12 -12 -9 -15 4 -3 12 1 19 10 14 17 11 19 -10 5z"/>
<path d="M2540 2377 c0 -15 27 -43 34 -36 3 2 -4 15 -15 28 -13 16 -19 18 -19
8z"/>
<path d="M2575 2380 c3 -5 10 -10 16 -10 5 0 9 5 9 10 0 6 -7 10 -16 10 -8 0
-12 -4 -9 -10z"/>
<path d="M7251 2381 c-11 -7 -7 -13 16 -24 25 -13 30 -13 30 -2 0 8 -4 12 -8
9 -4 -2 -11 2 -16 10 -5 10 -13 12 -22 7z"/>
<path d="M7356 2374 c-5 -14 -4 -15 9 -4 17 14 19 20 6 20 -5 0 -12 -7 -15
-16z"/>
<path d="M7214 2358 c-4 -6 -2 -14 4 -16 7 -2 9 -9 6 -14 -4 -6 -2 -8 4 -5 5
4 8 16 5 27 -6 23 -9 24 -19 8z"/>
<path d="M1715 2330 c10 -11 20 -20 23 -20 3 0 -3 9 -13 20 -10 11 -20 20 -23
20 -3 0 3 -9 13 -20z"/>
<path d="M2659 2333 c-13 -16 -12 -17 4 -4 9 7 17 15 17 17 0 8 -8 3 -21 -13z"/>
<path d="M3997 2343 c-10 -9 -9 -23 2 -23 5 0 11 7 15 15 5 15 -5 20 -17 8z"/>
<path d="M7335 2340 c-3 -5 -1 -10 4 -10 6 0 11 5 11 10 0 6 -2 10 -4 10 -3 0
-8 -4 -11 -10z"/>
<path d="M3233 2302 c-10 -6 -10 -12 2 -28 14 -18 14 -18 15 9 0 30 0 30 -17
19z"/>
<path d="M6984 2299 c-5 -8 -3 -9 6 -4 10 6 12 4 7 -8 -3 -9 -3 -18 1 -21 4
-3 8 4 9 14 2 23 -13 35 -23 19z"/>
<path d="M4037 2284 c6 -15 23 -19 23 -5 0 5 -7 11 -14 14 -10 4 -13 1 -9 -9z"/>
<path d="M2970 2279 c0 -11 27 -12 34 -1 2 4 -4 9 -15 9 -10 1 -19 -2 -19 -8z"/>
<path d="M3087 2273 c3 -8 12 -13 20 -11 21 4 16 23 -6 24 -13 1 -17 -4 -14
-13z"/>
<path d="M3710 2285 c0 -5 5 -17 10 -25 5 -8 10 -10 10 -5 0 6 -5 17 -10 25
-5 8 -10 11 -10 5z"/>
<path d="M4253 2277 c0 -7 9 -14 20 -14 11 -1 18 -1 16 0 -2 2 -11 8 -20 15
-12 9 -16 9 -16 -1z"/>
<path d="M6101 2274 c13 -16 29 -19 29 -5 0 5 -9 11 -21 14 -16 4 -18 3 -8 -9z"/>
<path d="M6670 2285 c0 -5 5 -17 10 -25 5 -8 10 -10 10 -5 0 6 -5 17 -10 25
-5 8 -10 11 -10 5z"/>
<path d="M6715 2279 c-4 -6 -3 -15 3 -21 6 -6 11 -4 15 6 7 18 -9 31 -18 15z"/>
<path d="M6865 2280 c-16 -7 -17 -9 -3 -9 9 -1 20 4 23 9 7 11 7 11 -20 0z"/>
<path d="M6966 2277 c3 -10 9 -15 12 -12 3 3 0 11 -7 18 -10 9 -11 8 -5 -6z"/>
<path d="M4790 2265 c-10 -12 -10 -15 4 -15 9 0 16 7 16 15 0 8 -2 15 -4 15
-2 0 -9 -7 -16 -15z"/>
<path d="M5475 2269 c-4 -6 -5 -12 -2 -15 2 -3 7 2 10 11 7 17 1 20 -8 4z"/>
<path d="M5923 2265 c0 -8 4 -12 9 -9 5 3 6 10 3 15 -9 13 -12 11 -12 -6z"/>
<path d="M6065 2270 c3 -5 8 -10 11 -10 2 0 4 5 4 10 0 6 -5 10 -11 10 -5 0
-7 -4 -4 -10z"/>
<path d="M6176 2263 c-6 -14 -5 -15 5 -6 7 7 10 15 7 18 -3 3 -9 -2 -12 -12z"/>
<path d="M6424 2268 c-11 -17 6 -22 22 -7 13 14 13 16 -1 16 -9 0 -18 -4 -21
-9z"/>
<path d="M6510 2276 c0 -2 7 -7 16 -10 8 -3 12 -2 9 4 -6 10 -25 14 -25 6z"/>
<path d="M6766 2272 c-3 -5 1 -9 9 -9 8 0 15 4 15 9 0 4 -4 8 -9 8 -6 0 -12
-4 -15 -8z"/>
<path d="M1780 2266 c0 -2 8 -10 18 -17 15 -13 16 -12 3 4 -13 16 -21 21 -21
13z"/>
<path d="M3850 2260 c-12 -7 -10 -9 8 -7 12 0 22 5 22 9 0 11 -12 10 -30 -2z"/>
<path d="M4365 2260 c3 -5 8 -10 11 -10 2 0 4 5 4 10 0 6 -5 10 -11 10 -5 0
-7 -4 -4 -10z"/>
<path d="M5085 2260 c-3 -5 -1 -10 4 -10 6 0 11 5 11 10 0 6 -2 10 -4 10 -3 0
-8 -4 -11 -10z"/>
<path d="M6575 2250 c-3 -5 -1 -10 4 -10 6 0 11 5 11 10 0 6 -2 10 -4 10 -3 0
-8 -4 -11 -10z"/>
</g>
</svg>
