<?xml version="1.0" standalone="no"?>
<!DOCTYPE svg PUBLIC "-//W3C//DTD SVG 20010904//EN"
 "http://www.w3.org/TR/2001/REC-SVG-20010904/DTD/svg10.dtd">
<svg version="1.0" xmlns="http://www.w3.org/2000/svg"
 width="500.000000pt" height="461.000000pt" viewBox="0 0 500.000000 461.000000"
 preserveAspectRatio="xMidYMid meet">

<g transform="translate(0.000000,461.000000) scale(0.100000,-0.100000)"
fill="#000000" stroke="none">
<path d="M2326 4372 c-40 -11 -72 -29 -97 -52 -42 -40 -124 -162 -158 -235
-13 -27 -27 -58 -32 -67 -10 -19 -50 -162 -54 -193 -2 -11 -4 -22 -6 -25 -3
-6 -4 -14 -12 -75 -7 -49 -14 -182 -19 -322 -1 -40 -5 -73 -9 -73 -3 0 -7 -25
-8 -55 0 -32 3 -55 9 -55 7 0 7 -6 0 -19 -7 -13 -7 -22 0 -26 5 -3 10 -16 10
-29 0 -24 21 -76 31 -76 10 0 19 40 19 80 0 24 -6 40 -20 50 -22 16 -28 77
-10 111 8 14 7 19 -1 19 -8 0 -8 4 -1 13 6 7 14 52 18 100 4 58 10 84 16 75 5
-8 6 30 2 97 -3 61 -8 112 -9 113 -2 2 1 17 7 34 8 22 13 26 19 16 7 -10 9
-10 9 0 0 7 5 10 11 6 7 -4 10 -1 7 7 -3 8 -11 13 -17 11 -6 -1 -11 7 -11 18
0 21 20 29 20 8 0 -8 5 -6 10 4 7 10 7 25 0 42 -9 25 7 75 26 79 5 1 8 10 7
20 -2 9 2 17 7 17 6 0 10 9 10 20 0 11 5 20 10 20 6 0 10 6 10 13 0 6 16 34
35 61 19 27 35 57 35 65 1 23 44 69 76 81 17 7 24 15 20 25 -4 11 2 15 20 15
20 0 24 4 19 19 -5 15 -1 18 20 13 20 -3 24 -1 19 12 -5 14 -2 16 21 10 20 -5
26 -4 21 5 -4 6 -2 11 3 11 6 0 11 7 11 15 0 18 -18 18 -94 -3z"/>
<path d="M2460 4371 c0 -5 11 -8 25 -8 13 0 22 3 19 8 -3 5 -14 9 -25 9 -10 0
-19 -4 -19 -9z"/>
<path d="M2185 4330 c3 -5 8 -10 11 -10 2 0 4 5 4 10 0 6 -5 10 -11 10 -5 0
-7 -4 -4 -10z"/>
<path d="M2150 4320 c0 -5 5 -10 10 -10 6 0 10 5 10 10 0 6 -4 10 -10 10 -5 0
-10 -4 -10 -10z"/>
<path d="M2097 4283 c-4 -3 -7 -11 -7 -17 0 -6 5 -5 12 2 6 6 9 14 7 17 -3 3
-9 2 -12 -2z"/>
<path d="M1976 4063 c-6 -14 -5 -15 5 -6 7 7 10 15 7 18 -3 3 -9 -2 -12 -12z"/>
<path d="M1927 3958 c-8 -18 -18 -46 -21 -63 -6 -29 -6 -30 5 -5 31 64 41 91
37 96 -3 2 -12 -10 -21 -28z"/>
<path d="M1881 3837 c-17 -42 -13 -67 5 -28 8 19 13 39 10 45 -2 6 -9 -2 -15
-17z"/>
<path d="M3010 3853 c0 -5 7 -18 15 -29 13 -18 14 -18 8 4 -5 22 -23 41 -23
25z"/>
<path d="M3030 3791 c0 -5 5 -13 10 -16 6 -3 10 -2 10 4 0 5 -4 13 -10 16 -5
3 -10 2 -10 -4z"/>
<path d="M1855 3736 c-4 -20 -11 -39 -16 -42 -5 -3 -9 -22 -9 -43 0 -20 -4
-41 -9 -46 -5 -6 -11 -30 -14 -55 -3 -25 -8 -70 -12 -100 -4 -30 -9 -62 -12
-70 -11 -28 -13 -84 -2 -73 5 5 14 43 19 84 13 96 24 162 39 224 28 119 33
146 28 152 -3 3 -9 -11 -12 -31z"/>
<path d="M3030 3651 c0 -6 5 -13 10 -16 6 -3 10 1 10 9 0 9 -4 16 -10 16 -5 0
-10 -4 -10 -9z"/>
<path d="M3050 3594 c1 -24 39 -147 49 -157 16 -16 14 -1 -12 80 -21 67 -37
100 -37 77z"/>
<path d="M3134 3457 c1 -15 6 -30 9 -34 11 -10 8 30 -3 47 -7 11 -8 8 -6 -13z"/>
<path d="M3104 3395 c4 -11 10 -32 13 -47 3 -15 12 -33 21 -40 14 -11 15 -10
8 7 -4 11 -13 34 -18 50 -6 17 -15 35 -21 40 -7 7 -8 3 -3 -10z"/>
<path d="M3150 3396 c0 -9 5 -16 10 -16 6 0 10 4 10 9 0 6 -4 13 -10 16 -5 3
-10 -1 -10 -9z"/>
<path d="M3155 3360 c-3 -5 1 -10 10 -10 9 0 13 5 10 10 -3 6 -8 10 -10 10 -2
0 -7 -4 -10 -10z"/>
<path d="M3176 3315 c-3 -8 -1 -15 4 -15 6 0 10 7 10 15 0 8 -2 15 -4 15 -2 0
-6 -7 -10 -15z"/>
<path d="M3185 3270 c3 -5 8 -10 11 -10 2 0 4 5 4 10 0 6 -5 10 -11 10 -5 0
-7 -4 -4 -10z"/>
<path d="M3151 3217 c-1 -26 8 -74 19 -107 13 -38 18 -70 13 -91 -5 -27 -3
-31 9 -26 13 5 14 0 7 -34 -8 -34 -5 -79 7 -101 5 -8 74 13 74 24 0 4 10 8 23
8 13 0 28 5 34 11 8 8 13 8 17 0 13 -20 26 -12 26 16 0 25 1 25 18 10 10 -10
25 -17 32 -17 21 0 -49 69 -92 91 -20 10 -40 24 -43 30 -9 13 73 -28 98 -49
15 -14 17 -14 12 -1 -9 23 -112 82 -130 75 -9 -3 -13 -2 -10 4 3 6 -1 10 -9
10 -9 0 -16 5 -16 11 0 6 -12 27 -27 46 -16 20 -35 59 -44 87 l-17 51 -1 -48z
m60 -188 c-5 -13 -10 -19 -10 -12 -1 15 10 45 15 40 3 -2 0 -15 -5 -28z"/>
<path d="M1890 3224 c-6 -14 -10 -38 -10 -53 0 -16 -6 -47 -14 -69 -14 -39
-14 -108 0 -174 6 -28 19 -37 26 -17 2 6 20 11 41 12 32 1 37 4 37 24 0 13 5
23 11 23 7 0 9 -9 5 -24 -8 -34 6 -41 19 -9 l11 28 37 -50 c20 -28 37 -56 37
-62 0 -7 5 -13 10 -13 12 0 12 6 0 50 -12 43 -144 190 -135 150 6 -23 5 -24
-6 -5 -7 11 -15 22 -19 25 -4 3 -13 16 -20 29 l-12 24 -25 -29 -25 -29 21 31
c12 19 23 57 27 97 7 69 1 86 -16 41z m104 -229 c3 -8 1 -15 -4 -15 -6 0 -10
7 -10 15 0 8 2 15 4 15 2 0 6 -7 10 -15z m-44 -45 c0 -5 -4 -10 -10 -10 -5 0
-10 5 -10 10 0 6 5 10 10 10 6 0 10 -4 10 -10z"/>
<path d="M1750 3201 c0 -6 5 -13 10 -16 6 -3 10 1 10 9 0 9 -4 16 -10 16 -5 0
-10 -4 -10 -9z"/>
<path d="M3214 3184 c7 -28 21 -44 40 -44 5 0 2 8 -7 18 -10 10 -17 24 -17 30
0 6 -5 14 -11 18 -9 5 -10 -1 -5 -22z"/>
<path d="M1920 3145 c0 -8 5 -15 10 -15 6 0 10 7 10 15 0 8 -4 15 -10 15 -5 0
-10 -7 -10 -15z"/>
<path d="M1745 3142 c-14 -10 -35 -59 -35 -82 0 -10 -6 -20 -12 -23 -7 -2 -9
-8 -5 -13 10 -10 42 28 62 75 21 48 18 63 -10 43z"/>
<path d="M2666 2919 l-40 -21 38 -23 c20 -12 42 -29 49 -38 13 -17 65 -26 85
-14 6 5 12 26 12 48 0 34 -4 41 -27 50 -52 19 -78 19 -117 -2z"/>
<path d="M3082 2928 c-5 -7 -15 -31 -22 -53 -7 -22 -17 -52 -22 -66 -5 -14 -6
-37 -3 -51 6 -22 3 -25 -27 -25 -18 0 -66 -4 -105 -10 -48 -6 -76 -6 -83 1 -5
5 -10 8 -11 6 0 -3 -2 -15 -5 -28 -4 -22 -4 -22 23 -5 26 17 26 17 14 -6 -13
-24 -17 -36 -25 -91 -5 -27 -4 -30 3 -10 l8 25 7 -30 c5 -16 10 -38 12 -47 3
-9 -2 -29 -12 -43 -9 -14 -12 -25 -6 -25 21 0 37 45 38 109 1 55 4 66 25 82
20 15 128 37 152 31 4 -1 7 22 7 52 0 30 4 56 9 58 7 3 42 138 36 138 -2 0 -7
-6 -13 -12z"/>
<path d="M1657 2819 c-20 -42 -37 -89 -37 -104 0 -20 -3 -25 -12 -18 -34 27
-84 20 -73 -9 4 -10 22 -17 50 -20 l43 -3 6 48 c8 59 27 58 39 -1 12 -60 45
-54 61 11 4 15 15 31 26 35 28 10 11 29 -33 37 -30 6 -37 4 -37 -9 0 -9 -4
-16 -9 -16 -5 0 -3 21 5 47 25 81 10 82 -29 2z"/>
<path d="M3400 2832 c0 -5 60 -12 133 -16 72 -4 142 -9 154 -10 34 -3 83 -52
83 -81 0 -30 3 -30 38 -8 36 24 61 54 62 76 0 9 7 17 15 17 27 0 15 17 -16 24
-48 9 -469 7 -469 -2z m403 -38 c8 11 20 17 28 14 9 -3 6 -10 -13 -22 -21 -14
-31 -15 -48 -6 -11 6 -17 16 -14 22 5 7 12 5 21 -7 13 -18 13 -18 26 -1z"/>
<path d="M3076 2803 c-4 -9 1 -25 12 -37 11 -12 22 -28 25 -36 4 -10 6 -8 6 7
1 12 6 25 11 28 6 4 7 11 4 17 -4 6 1 8 15 3 35 -11 24 10 -12 23 -44 16 -54
15 -61 -5z"/>
<path d="M2541 2765 c-14 -30 -23 -75 -27 -133 -5 -77 -4 -89 13 -107 11 -12
23 -33 27 -48 5 -22 12 -27 37 -27 l30 0 -2 163 c-1 90 1 168 4 174 4 6 0 14
-9 17 -36 14 -52 5 -73 -39z"/>
<path d="M2645 2780 c3 -5 8 -10 11 -10 2 0 4 5 4 10 0 6 -5 10 -11 10 -5 0
-7 -4 -4 -10z"/>
<path d="M1406 2734 c-8 -29 2 -93 16 -111 5 -7 7 -16 5 -21 -3 -4 -1 -14 4
-22 7 -10 7 5 2 45 -4 33 -6 74 -5 92 2 40 -14 52 -22 17z"/>
<path d="M3066 2703 c-9 -87 -19 -128 -34 -150 -12 -20 -13 -23 0 -23 18 0 58
127 58 183 0 53 -17 46 -24 -10z"/>
<path d="M1650 2669 c0 -25 -6 -66 -14 -91 -12 -43 -12 -45 11 -66 14 -12 23
-28 21 -34 -6 -17 -46 -22 -62 -9 -10 8 -15 -13 -25 -102 -6 -61 -14 -126 -17
-144 -3 -20 0 -33 8 -36 10 -4 10 -8 -1 -15 -8 -6 -11 -17 -8 -27 4 -9 3 -14
-3 -10 -6 3 -10 -2 -10 -12 0 -19 -18 -43 -31 -43 -11 0 0 116 17 180 8 30 14
65 14 78 0 20 -4 23 -32 20 -29 -3 -33 -8 -44 -48 -16 -58 -17 -40 -3 36 6 32
12 64 12 69 1 6 7 13 12 17 6 4 0 8 -11 8 -28 0 -36 31 -15 59 13 17 21 20 46
13 41 -11 89 -1 93 21 3 13 -3 17 -25 17 -16 0 -35 6 -42 13 -11 10 -13 7 -8
-18 5 -27 4 -28 -9 -10 -8 10 -14 22 -14 27 0 19 -18 6 -24 -17 -4 -14 -13
-25 -20 -25 -16 0 -21 -19 -31 -103 -4 -31 -11 -60 -16 -63 -13 -7 -11 -42 2
-46 6 -2 11 -27 11 -56 -1 -36 3 -50 10 -46 7 5 9 0 6 -13 -3 -12 -2 -27 3
-34 4 -7 4 -18 -2 -25 -5 -6 -14 -69 -20 -140 -6 -71 -13 -139 -15 -151 -8
-42 -24 -23 -26 30 l-1 52 -7 -45 c-5 -39 -3 -48 17 -67 23 -22 30 -43 14 -43
-13 0 -21 -40 -8 -40 7 -1 -1 -8 -18 -17 -16 -8 -41 -26 -55 -38 -14 -13 -44
-27 -68 -32 -55 -10 -55 -26 0 -36 88 -17 128 -30 128 -42 0 -7 7 -18 15 -25
11 -9 12 -17 5 -30 -15 -28 -44 -33 -95 -15 -41 13 -48 14 -61 0 -9 -8 -12
-15 -8 -15 5 0 3 -5 -4 -12 -9 -9 -18 -5 -38 15 -15 15 -31 27 -35 27 -5 0 -9
4 -9 10 0 5 8 7 18 4 15 -5 16 -4 1 8 -9 7 -19 23 -23 35 -4 12 -16 25 -26 28
-11 4 -26 13 -34 21 -18 17 -42 9 -49 -17 -5 -20 -27 -27 -27 -9 0 6 7 22 16
35 19 29 2 35 -18 7 -11 -15 -37 -30 -58 -34 -3 -1 -10 -8 -17 -17 -7 -9 -13
-12 -13 -7 0 19 -40 -43 -40 -63 0 -12 -4 -21 -9 -21 -5 0 -11 -9 -14 -20 -3
-11 -1 -20 4 -20 5 0 9 -4 9 -10 0 -5 -7 -10 -15 -10 -9 0 -12 -6 -9 -15 4 -8
-1 -17 -9 -21 -20 -7 -17 -20 17 -73 20 -32 27 -53 24 -77 -2 -19 0 -34 4 -34
4 0 8 -7 8 -16 0 -24 23 -42 45 -34 11 4 20 13 20 20 0 7 6 15 13 17 20 7 14
-11 -17 -45 -29 -31 -29 -32 -7 -26 25 6 39 -12 40 -51 1 -13 7 -19 19 -17 9
2 17 -2 17 -8 0 -6 5 -8 10 -5 5 3 10 1 10 -4 0 -15 27 -14 32 1 3 7 23 11 52
10 41 -2 53 2 79 28 17 16 34 30 38 30 3 0 22 13 40 30 19 16 41 30 49 30 11
-1 10 -4 -4 -15 -34 -26 -6 -31 37 -7 l42 23 -32 -29 c-32 -27 -41 -43 -25
-41 21 4 21 -4 -3 -35 -15 -19 -28 -49 -30 -68 -3 -18 -14 -45 -25 -60 -41
-56 -18 -49 27 8 25 32 43 50 39 39 -26 -69 -34 -109 -26 -131 5 -13 14 -24
20 -24 5 0 10 -15 9 -32 0 -32 -1 -32 -10 -9 -16 41 -35 6 -31 -56 2 -28 22
-30 29 -3 5 20 23 28 23 10 0 -5 7 -10 16 -10 8 0 13 4 10 9 -8 12 16 70 30
75 13 5 28 -39 19 -55 -9 -13 5 -50 16 -44 5 4 9 2 9 -3 0 -5 16 -9 35 -10 19
-1 44 -6 56 -12 11 -6 51 -14 90 -17 74 -6 98 -24 84 -61 -6 -16 -8 -15 -20 1
-18 24 -49 18 -53 -10 -2 -12 -12 -25 -23 -28 -10 -4 -20 -16 -21 -28 0 -12
-2 -28 -2 -36 -1 -8 -7 -16 -14 -19 -6 -2 -12 -9 -12 -16 0 -20 -34 -46 -59
-46 -16 0 -21 -5 -18 -14 8 -21 -65 -27 -299 -22 -297 7 -210 -10 121 -23 293
-12 457 -22 452 -28 -5 -4 -474 14 -725 28 -111 7 -205 9 -209 5 -27 -27 140
-54 400 -66 183 -8 460 -34 477 -45 4 -3 133 -7 286 -10 413 -8 861 -23 1030
-35 243 -17 388 -30 412 -36 43 -12 21 11 -41 42 -62 32 -63 32 -262 38 -110
3 -285 13 -390 21 -104 8 -253 15 -330 16 -77 0 -151 5 -165 10 -16 5 10 7 75
5 55 -2 138 -1 185 3 l85 7 -95 7 c-52 3 -153 9 -223 11 -135 6 -147 8 -147
32 0 8 -9 14 -20 14 -11 0 -20 4 -20 8 0 5 -17 13 -37 18 -35 8 -38 12 -41 47
-3 40 -9 42 -60 28 -31 -9 -33 -8 -39 20 -3 16 -9 29 -14 29 -5 0 -9 6 -9 14
0 8 -4 16 -8 18 -5 2 -12 20 -15 40 -5 33 -3 38 14 38 12 0 19 7 19 19 0 11
11 28 25 39 19 15 25 29 25 61 0 23 3 41 8 41 4 0 6 49 5 110 -2 99 -5 115
-32 168 -17 33 -37 67 -46 76 -9 9 -11 16 -5 16 10 0 -18 46 -47 77 -6 7 -15
22 -18 33 -3 11 -10 20 -15 20 -5 0 -12 10 -16 23 -4 12 -17 35 -30 50 -13 16
-24 35 -24 44 0 8 -9 27 -19 42 -10 14 -24 46 -31 71 -6 25 -18 63 -25 85 -8
22 -19 69 -25 104 -6 39 -17 72 -29 85 -12 13 -22 41 -26 71 -3 28 -5 55 -6
60 -1 6 6 37 15 70 18 68 20 99 6 90 -18 -11 -10 49 10 75 22 28 26 66 8 73
-9 3 -7 11 7 27 11 12 19 31 17 42 -2 10 2 25 8 33 7 8 9 19 5 25 -4 6 2 21
14 34 31 33 19 94 -21 108 -21 8 -27 15 -23 27 15 36 25 145 15 155 -7 7 -10
-5 -10 -35z m5 -299 c-3 -5 -10 -10 -16 -10 -5 0 -9 5 -9 10 0 6 7 10 16 10 8
0 12 -4 9 -10z m-35 -14 c0 -3 -4 -8 -10 -11 -5 -3 -10 -1 -10 4 0 6 5 11 10
11 6 0 10 -2 10 -4z m-170 -15 c0 -6 -4 -13 -10 -16 -5 -3 -10 1 -10 9 0 9 5
16 10 16 6 0 10 -4 10 -9z m81 -12 c-2 -8 -8 -38 -13 -66 -12 -65 -31 -60 -23
5 9 68 15 84 28 79 7 -3 10 -11 8 -18z m119 -15 c0 -9 -5 -14 -12 -12 -18 6
-21 28 -4 28 9 0 16 -7 16 -16z m-40 -39 c0 -5 -5 -3 -10 5 -5 8 -10 20 -10
25 0 6 5 3 10 -5 5 -8 10 -19 10 -25z m16 -77 c-14 -9 -20 7 -11 30 6 15 8 15
15 -3 4 -12 3 -23 -4 -27z m-126 -53 c0 -14 -4 -25 -9 -25 -6 0 -8 36 -2 48 5
10 11 -2 11 -23z m-18 -89 c1 -37 4 -46 16 -41 8 3 21 0 28 -6 12 -10 11 -14
-3 -25 -24 -18 -33 -17 -33 3 0 9 -3 13 -7 9 -8 -8 -9 -14 -12 -82 0 -26 -9
-51 -22 -65 -15 -17 -19 -19 -15 -7 3 10 11 76 17 148 8 81 16 127 21 122 6
-6 10 -31 10 -56z m84 -14 c-4 -3 -11 0 -16 8 -15 24 -11 33 6 15 9 -9 13 -19
10 -23z m-46 -102 c0 -5 -4 -12 -10 -15 -5 -3 -10 -4 -10 -1 0 2 -3 12 -6 20
-5 12 -2 15 10 10 9 -3 16 -10 16 -14z m37 -176 c-3 -3 -12 -4 -19 -1 -8 3 -5
6 6 6 11 1 17 -2 13 -5z m13 -74 c0 -5 -2 -10 -4 -10 -3 0 -8 5 -11 10 -3 6
-1 10 4 10 6 0 11 -4 11 -10z m-30 -4 c0 -2 -7 -9 -15 -16 -13 -11 -14 -10 -9
4 5 14 24 23 24 12z m-40 -30 c0 -3 -4 -8 -10 -11 -5 -3 -10 -1 -10 4 0 6 5
11 10 11 6 0 10 -2 10 -4z m-30 -26 c0 -5 -4 -10 -10 -10 -5 0 -10 5 -10 10 0
6 5 10 10 10 6 0 10 -4 10 -10z m100 -9 c0 -10 -9 -21 -20 -24 -19 -5 -19 -4
-2 19 21 29 22 29 22 5z m-66 -55 c-10 -8 -21 -12 -23 -10 -3 2 4 11 15 18 10
8 21 12 23 10 3 -2 -4 -11 -15 -18z m54 -47 c-7 -5 -17 -9 -23 -9 -5 1 -2 5 8
11 10 6 18 23 19 42 l1 32 4 -34 c3 -21 0 -37 -9 -42z m-423 -9 c26 -29 14
-33 -14 -4 -13 13 -19 24 -14 24 6 0 18 -9 28 -20z m-112 -26 c-3 -9 0 -20 8
-24 7 -5 10 -12 7 -15 -4 -4 -11 -4 -17 0 -14 8 -14 55 -1 55 5 0 7 -7 3 -16z
m576 -26 c15 -42 7 -47 -13 -7 -19 37 -19 39 -7 39 5 0 14 -14 20 -32z m41 22
c0 -5 -2 -10 -4 -10 -3 0 -8 5 -11 10 -3 6 -1 10 4 10 6 0 11 -4 11 -10z
m-341 -64 c-3 -3 -11 5 -18 17 -13 21 -12 21 5 5 10 -10 16 -20 13 -22z m185
-30 c-3 -9 -10 -13 -15 -10 -5 3 -3 11 4 19 15 16 19 13 11 -9z m150 8 c5 -14
4 -15 -9 -4 -17 14 -19 20 -6 20 5 0 12 -7 15 -16z m-127 -59 c-20 -41 -22
-43 -30 -22 -6 17 -3 27 18 44 14 13 28 23 30 23 2 0 -6 -20 -18 -45z m208 -5
c3 -5 -3 -10 -15 -10 -12 0 -18 5 -15 10 3 6 10 10 15 10 5 0 12 -4 15 -10z
m-100 -21 c-8 -12 -35 -12 -35 0 0 11 22 20 33 14 4 -2 5 -9 2 -14z m139 -30
c-5 -8 -69 -39 -82 -39 -9 0 43 47 58 52 19 7 32 0 24 -13z m-220 -55 c3 -8 2
-12 -4 -9 -6 3 -10 10 -10 16 0 14 7 11 14 -7z m216 -25 c0 -8 4 -8 14 0 10 8
16 9 21 1 3 -5 14 -10 24 -10 10 0 18 -6 18 -14 0 -8 -6 -12 -14 -9 -7 3 -13
-2 -13 -11 0 -13 -5 -14 -26 -6 -38 15 -74 12 -74 -5 0 -8 -4 -15 -9 -15 -5 0
-11 7 -15 15 -3 8 -10 15 -15 15 -6 0 -8 -7 -5 -15 4 -8 2 -15 -2 -15 -16 0
-64 36 -58 43 4 4 13 2 21 -4 10 -9 17 -8 28 1 9 7 27 10 44 7 24 -5 31 -2 36
13 7 21 25 27 25 9z m-460 -14 c0 -13 -120 -127 -131 -123 -9 3 -5 12 12 27
55 50 69 66 69 77 0 13 15 22 38 23 6 1 12 -1 12 -4z m595 -15 c4 -6 -6 -10
-22 -10 -22 0 -25 2 -13 10 19 12 27 12 35 0z m-332 -17 c-6 -14 -43 -18 -43
-5 0 14 11 21 30 19 10 -1 16 -7 13 -14z m-71 -85 c-6 -6 -15 -8 -19 -4 -4 4
-1 11 7 16 19 12 27 3 12 -12z m413 12 c4 -6 -7 -10 -25 -10 -18 0 -29 4 -25
10 3 6 15 10 25 10 10 0 22 -4 25 -10z m-446 -97 c-3 -65 -11 -84 -20 -50 -7
25 6 97 17 97 3 0 4 -21 3 -47z m341 -7 c0 -5 -9 -1 -20 9 -11 10 -20 22 -20
26 0 5 9 1 20 -8 11 -10 20 -22 20 -27z m-275 -51 c-19 -71 -35 -77 -35 -13 0
25 8 51 22 71 29 41 34 20 13 -58z m-83 -50 c-2 -14 -8 -28 -13 -31 -10 -6
-11 2 -3 34 9 30 22 28 16 -3z m318 -30 c8 -7 24 -15 35 -17 11 -3 28 -9 38
-13 14 -6 16 -3 11 11 -3 11 2 6 11 -10 15 -25 15 -30 2 -43 -12 -13 -19 -12
-52 2 -31 12 -40 13 -46 3 -7 -11 -13 -10 -30 0 -17 11 -23 11 -29 1 -9 -14
-40 -5 -40 12 0 6 9 13 21 16 14 4 19 12 16 24 -5 18 -4 18 20 -1 38 -30 47
-24 22 12 -22 30 -14 31 21 3z m-180 -47 c0 -16 -3 -19 -11 -11 -6 6 -8 16 -5
22 11 17 16 13 16 -11z m-31 -41 c12 -15 5 -27 -16 -27 -7 0 -13 9 -13 20 0
23 13 26 29 7z m426 -427 l30 -8 -30 0 c-16 -1 -48 3 -70 7 l-40 9 40 0 c22 0
54 -4 70 -8z m270 -10 c7 -11 -55 -12 -155 0 -62 7 -60 7 42 8 62 1 109 -2
113 -8z"/>
<path d="M3838 2683 c-33 -16 -37 -33 -8 -33 11 0 20 6 20 14 0 8 6 16 13 19
6 2 10 6 7 9 -3 2 -17 -2 -32 -9z"/>
<path d="M3866 2625 c4 -8 8 -15 10 -15 2 0 4 7 4 15 0 8 -4 15 -10 15 -5 0
-7 -7 -4 -15z"/>
<path d="M3882 2553 c-2 -35 1 -43 16 -43 11 0 13 3 5 8 -6 4 -13 23 -16 42
-4 33 -4 33 -5 -7z"/>
<path d="M1441 2544 c0 -11 3 -14 6 -6 3 7 2 16 -1 19 -3 4 -6 -2 -5 -13z"/>
<path d="M3084 2538 c-4 -6 -10 -25 -13 -42 -5 -25 -12 -31 -34 -33 -21 -1
-30 4 -37 20 -7 21 -8 21 -16 3 -4 -10 -2 -27 4 -37 17 -26 15 -29 -13 -29
-23 0 -25 -4 -26 -47 -1 -27 -3 -40 -6 -30 -5 20 -69 24 -76 5 -2 -7 -8 -10
-12 -6 -4 4 -3 13 2 20 6 7 13 25 17 41 5 23 3 27 -14 27 -11 0 -20 4 -20 9 0
5 -11 11 -25 14 -25 4 -25 4 -9 -14 9 -11 23 -19 31 -19 16 0 17 14 -8 -127
-15 -89 -19 -138 -14 -201 4 -51 3 -87 -3 -95 -6 -7 -12 -47 -14 -90 -3 -75
-4 -78 -25 -74 -27 5 -29 -5 -7 -27 22 -23 133 -25 186 -5 34 14 35 21 43 254
7 186 27 357 42 363 50 17 58 28 59 80 2 54 0 60 -12 40z m-98 -344 c-9 -104
-17 -207 -19 -229 -2 -22 -4 0 -5 49 -1 49 2 128 8 175 5 47 12 112 16 144 3
32 8 57 10 54 3 -3 -2 -90 -10 -193z m-71 139 c-20 -96 -40 -235 -50 -338 -3
-33 -9 -85 -12 -115 -6 -51 -7 -53 -12 -20 -3 19 0 109 7 200 7 91 11 177 9
192 -2 15 0 25 5 22 4 -3 8 2 8 10 0 8 4 26 10 40 11 29 40 36 35 9z m24 -90
c-4 -32 -15 -128 -23 -213 -9 -85 -18 -165 -21 -178 -5 -21 -2 -23 22 -20 24
3 28 8 31 38 2 19 8 40 14 45 7 7 8 -4 3 -35 -8 -50 -17 -60 -57 -60 -37 0
-37 -16 3 335 14 124 20 156 28 151 4 -3 4 -31 0 -63z m-103 -70 c-13 -43 -15
-45 -15 -17 -1 38 22 107 27 82 2 -9 -4 -38 -12 -65z"/>
<path d="M3743 2483 c-10 -75 -11 -757 0 -844 8 -66 9 -66 33 -55 26 12 33 36
9 36 -24 0 -17 17 10 24 16 4 25 13 25 26 0 22 35 28 43 8 2 -8 8 -9 13 -4 5
5 4 11 -3 13 -15 5 -18 63 -4 63 5 0 12 -8 14 -17 4 -15 5 -15 6 -2 0 9 -10
28 -24 43 -14 15 -25 38 -25 52 0 13 -4 24 -10 24 -6 0 -10 26 -10 58 0 31 -4
71 -8 87 -9 33 3 95 18 95 6 0 10 8 10 18 1 9 9 -3 19 -28 32 -78 53 -111 75
-120 11 -4 22 -7 23 -6 2 2 -7 22 -19 47 -12 24 -22 62 -22 84 -1 22 -5 43
-11 47 -6 5 -5 8 2 8 9 0 7 11 -6 38 -11 20 -22 55 -25 77 -6 35 -5 38 7 23 8
-10 19 -18 26 -18 6 0 11 -4 11 -9 0 -5 7 -11 15 -15 11 -4 8 8 -10 44 -14 27
-25 54 -25 60 0 6 -10 24 -22 40 -26 36 -14 55 13 21 25 -31 29 -26 22 27 -8
57 -37 71 -88 42 -53 -30 -64 -27 -63 20 1 62 -9 59 -19 -7z"/>
<path d="M2800 2510 c-13 -8 -12 -10 3 -10 9 0 17 5 17 10 0 12 -1 12 -20 0z"/>
<path d="M3975 2369 c-9 -14 3 -59 15 -59 6 0 10 -16 10 -35 0 -19 -3 -35 -8
-35 -13 0 -33 40 -26 52 4 6 3 8 -3 5 -6 -4 -14 0 -17 9 -4 9 -9 14 -12 11
-10 -9 57 -116 77 -122 22 -7 22 -36 1 -43 -8 -2 -37 20 -64 49 -28 30 -49 49
-47 43 10 -25 65 -103 74 -104 11 -1 48 -41 133 -145 31 -38 60 -71 64 -73 4
-2 -4 -19 -18 -38 -25 -32 -20 -50 6 -20 8 11 18 12 36 6 30 -12 54 -3 54 20
0 19 19 30 53 30 18 1 19 2 6 10 -9 5 -33 7 -53 3 -30 -5 -37 -9 -33 -24 3
-12 0 -19 -9 -19 -19 0 -18 19 2 42 16 17 14 27 -22 155 -48 174 -82 216 -146
182 -22 -12 -37 -4 -21 12 7 7 4 24 -10 55 -21 45 -31 52 -42 33z m137 -126
c16 -19 41 -98 53 -168 3 -22 9 -48 12 -59 3 -12 1 -16 -6 -12 -6 4 -11 2 -11
-3 0 -26 -29 -7 -70 45 -74 95 -74 95 -52 109 23 17 32 53 21 83 -7 19 -5 22
15 22 12 0 30 -8 38 -17z"/>
<path d="M2075 2350 c-3 -5 -2 -10 4 -10 5 0 13 5 16 10 3 6 2 10 -4 10 -5 0
-13 -4 -16 -10z"/>
<path d="M2025 2320 c-10 -11 -13 -20 -7 -20 6 0 16 9 22 20 6 11 9 20 7 20
-2 0 -12 -9 -22 -20z"/>
<path d="M2092 2307 c-24 -25 -28 -37 -12 -37 6 0 10 5 10 12 0 6 7 20 17 30
24 26 10 22 -15 -5z"/>
<path d="M1985 2280 c-3 -5 -1 -10 4 -10 6 0 11 5 11 10 0 6 -2 10 -4 10 -3 0
-8 -4 -11 -10z"/>
<path d="M2020 2260 c-8 -5 -12 -12 -9 -15 8 -8 39 5 39 16 0 11 -11 11 -30
-1z"/>
<path d="M2095 2260 c-3 -5 1 -10 9 -10 9 0 16 5 16 10 0 6 -4 10 -9 10 -6 0
-13 -4 -16 -10z"/>
<path d="M2145 2260 c-3 -5 -1 -10 4 -10 6 0 11 5 11 10 0 6 -2 10 -4 10 -3 0
-8 -4 -11 -10z"/>
<path d="M1950 2250 c0 -5 7 -10 15 -10 8 0 15 5 15 10 0 6 -7 10 -15 10 -8 0
-15 -4 -15 -10z"/>
<path d="M2228 2253 c7 -3 16 -2 19 1 4 3 -2 6 -13 5 -11 0 -14 -3 -6 -6z"/>
<path d="M2285 2250 c3 -5 10 -10 16 -10 5 0 9 5 9 10 0 6 -7 10 -16 10 -8 0
-12 -4 -9 -10z"/>
<path d="M2093 2213 c15 -2 37 -2 50 0 12 2 0 4 -28 4 -27 0 -38 -2 -22 -4z"/>
<path d="M1392 1990 c0 -14 2 -19 5 -12 2 6 2 18 0 25 -3 6 -5 1 -5 -13z"/>
<path d="M4339 1925 c-4 -3 7 -20 23 -37 16 -17 31 -29 33 -26 3 2 -8 19 -23
37 -15 18 -30 30 -33 26z"/>
<path d="M805 1844 c-24 -26 -35 -61 -15 -49 6 3 10 13 10 21 0 8 15 23 33 34
22 14 26 20 14 20 -10 0 -29 -12 -42 -26z"/>
<path d="M927 1835 c-4 -8 -2 -17 3 -20 6 -4 10 -4 10 -1 0 2 3 11 6 20 3 9 2
16 -4 16 -5 0 -12 -7 -15 -15z"/>
<path d="M4360 1820 c0 -5 5 -10 10 -10 6 0 10 5 10 10 0 6 -4 10 -10 10 -5 0
-10 -4 -10 -10z"/>
<path d="M4140 1798 c0 -16 64 -100 81 -106 20 -8 7 19 -24 51 -19 18 -39 42
-45 53 -10 16 -11 16 -12 2z"/>
<path d="M4380 1780 c0 -11 5 -20 10 -20 6 0 10 9 10 20 0 11 -4 20 -10 20 -5
0 -10 -9 -10 -20z"/>
<path d="M4200 1780 c0 -5 4 -10 9 -10 6 0 13 5 16 10 3 6 -1 10 -9 10 -9 0
-16 -4 -16 -10z"/>
<path d="M1325 1729 c-4 -6 -5 -12 -2 -15 7 -7 37 7 37 17 0 13 -27 11 -35 -2z"/>
<path d="M755 1700 c-3 -5 -1 -10 4 -10 6 0 11 5 11 10 0 6 -2 10 -4 10 -3 0
-8 -4 -11 -10z"/>
<path d="M726 1665 c-3 -8 -1 -15 4 -15 13 0 22 18 11 24 -5 3 -11 -1 -15 -9z"/>
<path d="M4210 1668 c0 -19 21 -48 31 -43 5 4 6 11 3 17 -5 7 -1 9 9 5 9 -3
19 -3 21 2 3 4 -10 13 -29 19 -22 6 -35 7 -35 0z"/>
<path d="M690 1651 c0 -4 12 -14 28 -23 15 -9 37 -26 50 -38 12 -12 28 -20 34
-18 8 3 2 13 -13 26 -29 26 -99 63 -99 53z"/>
<path d="M1120 1650 c0 -6 7 -10 15 -10 8 0 15 2 15 4 0 2 -7 6 -15 10 -8 3
-15 1 -15 -4z"/>
<path d="M4340 1609 c-30 -10 -59 -24 -64 -29 -15 -15 -23 -12 -29 12 -4 12
-9 19 -13 15 -4 -4 -2 -17 4 -30 6 -12 16 -34 22 -49 5 -16 14 -28 20 -28 6 0
8 -5 5 -10 -6 -10 16 -84 36 -122 5 -10 9 -26 9 -35 0 -15 2 -16 10 -3 13 21
13 26 -7 46 -11 11 -14 19 -7 21 8 3 5 16 -7 41 -11 20 -19 54 -19 77 0 38 3
42 43 62 23 12 50 24 60 27 19 6 23 26 5 25 -7 0 -38 -9 -68 -20z"/>
<path d="M680 1616 c0 -2 7 -7 16 -10 8 -3 12 -2 9 4 -6 10 -25 14 -25 6z"/>
<path d="M3840 1596 c0 -14 5 -26 10 -26 6 0 10 9 10 19 0 11 -4 23 -10 26 -6
4 -10 -5 -10 -19z"/>
<path d="M572 1598 c-7 -7 -12 -19 -11 -27 0 -14 1 -14 6 -1 4 8 13 20 22 27
9 7 11 13 6 13 -6 0 -16 -5 -23 -12z"/>
<path d="M604 1586 c-8 -22 3 -33 18 -18 9 9 9 15 0 24 -9 9 -13 7 -18 -6z"/>
<path d="M740 1586 c0 -2 8 -10 18 -17 15 -13 16 -12 3 4 -13 16 -21 21 -21
13z"/>
<path d="M1220 1560 c0 -10 2 -11 37 -15 12 -1 28 -5 37 -8 9 -4 16 -2 16 4 0
11 -10 15 -57 23 -19 3 -33 1 -33 -4z"/>
<path d="M557 1503 c-17 -27 36 -93 76 -93 8 0 19 -11 25 -25 9 -20 19 -25 50
-25 26 0 45 7 57 20 16 18 16 20 2 20 -9 0 -20 -7 -24 -15 -7 -12 -17 -9 -58
20 -28 19 -64 41 -82 50 -19 9 -33 23 -35 37 -2 15 -6 19 -11 11z"/>
<path d="M770 1440 c-7 -14 -7 -20 0 -20 5 0 13 0 17 -1 4 0 10 9 15 20 10 28
-17 29 -32 1z"/>
<path d="M4130 1420 c0 -8 5 -22 10 -30 9 -13 10 -13 10 0 0 8 -5 22 -10 30
-9 13 -10 13 -10 0z"/>
<path d="M4151 1334 c0 -11 3 -14 6 -6 3 7 2 16 -1 19 -3 4 -6 -2 -5 -13z"/>
<path d="M4340 1299 c0 -18 20 -49 32 -49 9 0 9 3 0 12 -7 7 -12 20 -12 30 0
10 -4 18 -10 18 -5 0 -10 -5 -10 -11z"/>
<path d="M687 1283 c-4 -3 -7 -11 -7 -17 0 -6 5 -5 12 2 6 6 9 14 7 17 -3 3
-9 2 -12 -2z"/>
<path d="M3791 1254 c0 -11 3 -14 6 -6 3 7 2 16 -1 19 -3 4 -6 -2 -5 -13z"/>
<path d="M3806 1165 c3 -27 9 -72 14 -100 5 -27 12 -67 15 -87 9 -61 26 -45
19 20 -3 31 -8 68 -11 82 -3 14 -7 38 -8 54 -2 16 -7 31 -13 35 -5 3 -12 15
-15 26 -3 11 -3 -2 -1 -30z"/>
<path d="M4360 1203 c1 -5 7 -19 15 -33 10 -18 14 -20 15 -8 0 23 -11 48 -21
48 -5 0 -9 -3 -9 -7z"/>
<path d="M1284 1087 c-11 -13 -23 -31 -27 -41 -4 -9 -11 -15 -16 -12 -4 3 -17
-4 -27 -15 -16 -17 -16 -22 -4 -29 23 -15 27 -12 47 20 9 17 22 30 28 30 5 0
24 12 40 26 26 23 27 25 8 20 -18 -6 -22 -4 -17 8 9 23 -9 19 -32 -7z"/>
<path d="M4390 1085 c0 -8 4 -15 10 -15 5 0 7 7 4 15 -4 8 -8 15 -10 15 -2 0
-4 -7 -4 -15z"/>
<path d="M965 1080 c-3 -5 -1 -10 4 -10 6 0 11 5 11 10 0 6 -2 10 -4 10 -3 0
-8 -4 -11 -10z"/>
<path d="M561 1034 c0 -11 3 -14 6 -6 3 7 2 16 -1 19 -3 4 -6 -2 -5 -13z"/>
<path d="M1265 994 c-24 -37 -11 -41 15 -5 12 17 17 31 12 31 -5 0 -17 -12
-27 -26z"/>
<path d="M537 974 c-4 -4 -7 -14 -7 -23 0 -11 3 -12 11 -4 6 6 10 16 7 23 -2
6 -7 8 -11 4z"/>
<path d="M1156 964 c-5 -14 -4 -15 9 -4 17 14 19 20 6 20 -5 0 -12 -7 -15 -16z"/>
<path d="M3857 883 c2 -27 7 -64 10 -83 4 -19 5 -40 4 -47 -1 -6 3 -14 8 -17
5 -3 7 -14 4 -24 -5 -21 13 -72 25 -72 5 0 0 33 -10 73 -10 39 -21 105 -25
145 -3 39 -9 72 -13 72 -4 0 -6 -21 -3 -47z"/>
<path d="M4421 914 c0 -11 3 -14 6 -6 3 7 2 16 -1 19 -3 4 -6 -2 -5 -13z"/>
<path d="M1312 857 c-6 -7 -7 -18 -3 -26 7 -10 10 -8 16 8 8 27 2 36 -13 18z"/>
<path d="M530 848 c0 -9 5 -20 10 -23 13 -8 13 5 0 25 -8 13 -10 13 -10 -2z"/>
<path d="M4433 825 c0 -22 2 -30 4 -17 2 12 2 30 0 40 -3 9 -5 -1 -4 -23z"/>
<path d="M4536 675 c-9 -26 -7 -32 5 -12 6 10 9 21 6 23 -2 3 -7 -2 -11 -11z"/>
<path d="M1430 670 c0 -5 5 -10 11 -10 5 0 7 5 4 10 -3 6 -8 10 -11 10 -2 0
-4 -4 -4 -10z"/>
<path d="M3914 593 c2 -23 11 -56 20 -73 8 -18 18 -47 22 -66 3 -19 10 -37 16
-40 5 -3 4 -12 -3 -20 -7 -9 -10 -32 -7 -59 3 -25 2 -45 -3 -45 -5 0 -9 22 -9
49 0 54 -21 86 -50 78 -13 -3 -16 0 -12 16 4 17 2 19 -19 13 -13 -4 -34 -7
-46 -7 -13 0 -23 -4 -23 -9 0 -6 -13 -10 -30 -10 -16 0 -30 4 -30 9 0 5 -18 5
-42 -1 -23 -5 -52 -8 -64 -6 -13 2 -23 0 -24 -4 -2 -38 2 -48 18 -48 11 0 24
-12 31 -26 10 -22 9 -30 -4 -44 -15 -16 -14 -17 10 -13 16 4 25 12 25 24 0 11
5 19 10 19 18 0 11 -48 -7 -53 -10 -3 2 -4 27 -2 25 1 34 0 21 -2 -22 -4 -22
-5 -4 -18 28 -19 188 -30 242 -15 24 6 69 13 99 16 37 3 70 13 101 32 25 16
54 31 64 35 9 3 17 11 17 16 0 5 9 13 20 16 11 3 20 13 20 21 0 11 -6 11 -37
-3 -21 -10 -47 -25 -58 -34 -31 -25 -136 -82 -141 -76 -7 7 68 59 179 125 62
37 107 79 52 49 -16 -9 -61 -37 -100 -62 -85 -55 -180 -105 -197 -105 -8 0 -9
3 -3 8 15 11 19 92 5 92 -7 0 -10 7 -6 17 4 9 3 19 -2 22 -5 3 -26 56 -46 116
-26 79 -35 98 -32 68z"/>
<path d="M4466 485 c-16 -30 -55 -82 -88 -115 -32 -33 -55 -60 -50 -60 11 0
109 99 125 126 40 71 56 104 50 104 -5 0 -21 -25 -37 -55z"/>
<path d="M3711 481 c-7 -5 -11 -15 -9 -22 3 -10 8 -7 17 9 13 24 12 26 -8 13z"/>
<path d="M948 393 c7 -3 16 -2 19 1 4 3 -2 6 -13 5 -11 0 -14 -3 -6 -6z"/>
<path d="M3370 381 c0 -5 7 -12 16 -15 14 -5 15 -4 4 9 -14 17 -20 19 -20 6z"/>
<path d="M2648 313 c6 -2 18 -2 25 0 6 3 1 5 -13 5 -14 0 -19 -2 -12 -5z"/>
<path d="M2891 306 c10 -9 149 -14 149 -5 0 5 -34 9 -77 9 -42 0 -74 -2 -72
-4z"/>
<path d="M4265 285 c-16 -13 -25 -24 -19 -25 6 0 17 7 24 15 7 8 19 15 26 15
8 0 14 5 14 10 0 16 -13 12 -45 -15z"/>
<path d="M3160 288 c0 -5 37 -8 83 -7 64 0 77 2 57 10 -27 11 -140 8 -140 -3z"/>
<path d="M3530 286 c0 -2 7 -7 16 -10 8 -3 12 -2 9 4 -6 10 -25 14 -25 6z"/>
<path d="M3630 250 c0 -5 10 -10 23 -10 18 0 19 2 7 10 -19 13 -30 13 -30 0z"/>
<path d="M4165 250 c-8 -13 15 -13 35 0 12 8 11 10 -7 10 -12 0 -25 -4 -28
-10z"/>
<path d="M4075 230 c-18 -8 -18 -9 5 -9 14 0 34 4 45 9 18 8 18 9 -5 9 -14 0
-34 -4 -45 -9z"/>
<path d="M3748 223 c7 -3 16 -2 19 1 4 3 -2 6 -13 5 -11 0 -14 -3 -6 -6z"/>
<path d="M3798 213 c7 -3 16 -2 19 1 4 3 -2 6 -13 5 -11 0 -14 -3 -6 -6z"/>
<path d="M4018 213 c7 -3 16 -2 19 1 4 3 -2 6 -13 5 -11 0 -14 -3 -6 -6z"/>
<path d="M4080 198 c-69 -18 -283 -29 -385 -20 -16 1 -37 1 -45 0 -8 0 -40 2
-70 5 -39 5 -50 4 -38 -3 9 -6 29 -12 45 -15 44 -7 144 -33 151 -39 3 -3 -13
-6 -36 -6 -22 0 -44 -5 -47 -10 -15 -24 435 3 483 29 19 10 23 11 55 11 20 1
21 2 5 14 -13 9 -32 11 -65 6 -43 -7 -64 -6 -52 3 2 2 27 13 54 25 61 26 44
26 -55 0z"/>
</g>
</svg>
