<?xml version="1.0" standalone="no"?>
<!DOCTYPE svg PUBLIC "-//W3C//DTD SVG 20010904//EN"
 "http://www.w3.org/TR/2001/REC-SVG-20010904/DTD/svg10.dtd">
<svg version="1.0" xmlns="http://www.w3.org/2000/svg"
 width="225.000000pt" height="225.000000pt" viewBox="0 0 225.000000 225.000000"
 preserveAspectRatio="xMidYMid meet">

<g transform="translate(0.000000,225.000000) scale(0.100000,-0.100000)"
fill="#000000" stroke="none">
<path d="M470 2178 c-55 -15 -97 -63 -110 -123 -7 -35 -10 -344 -8 -961 l3
-910 28 -43 c49 -74 19 -71 743 -71 598 0 650 1 682 17 47 24 73 61 83 120 10
63 11 1786 0 1838 -14 74 -51 117 -116 134 -53 14 -1255 13 -1305 -1z m284
-104 c19 -19 20 -25 3 -49 -20 -26 -67 -13 -67 18 0 43 35 60 64 31z"/>
</g>
</svg>
