<?xml version="1.0" standalone="no"?>
<!DOCTYPE svg PUBLIC "-//W3C//DTD SVG 20010904//EN"
 "http://www.w3.org/TR/2001/REC-SVG-20010904/DTD/svg10.dtd">
<svg version="1.0" xmlns="http://www.w3.org/2000/svg"
 width="216.000000pt" height="233.000000pt" viewBox="0 0 216.000000 233.000000"
 preserveAspectRatio="xMidYMid meet">

<g transform="translate(0.000000,233.000000) scale(0.100000,-0.100000)"
fill="#000000" stroke="none">
<path d="M1122 2157 c-6 -7 -25 -41 -42 -75 -31 -62 -50 -79 -50 -43 0 11 10
27 22 35 12 9 17 16 11 16 -17 0 -43 -29 -43 -48 0 -9 -15 -24 -33 -33 -21
-10 -41 -34 -60 -69 -15 -29 -38 -58 -50 -64 -12 -6 -27 -22 -34 -35 -14 -30
-35 -42 -90 -52 -72 -14 -91 2 -132 108 -22 56 -43 67 -113 60 -108 -10 -123
-20 -163 -100 -21 -43 -44 -112 -55 -168 -21 -100 -42 -163 -60 -174 -5 -3
-10 -13 -10 -22 0 -9 -6 -24 -14 -32 -8 -9 -21 -38 -30 -65 -17 -48 -16 -50 9
-102 33 -67 67 -95 218 -181 162 -92 211 -137 273 -258 39 -77 54 -97 75 -101
20 -5 25 -11 22 -28 -3 -15 7 -38 29 -67 26 -34 44 -46 76 -54 24 -6 40 -14
36 -18 -12 -12 26 -57 79 -92 34 -22 70 -37 102 -41 35 -5 56 -14 70 -31 36
-43 225 -92 264 -69 6 4 18 0 27 -8 20 -21 111 -21 212 0 141 29 204 68 237
146 14 34 14 46 1 107 -19 89 -34 117 -108 199 -109 120 -214 257 -210 274 2
9 -1 19 -6 22 -6 3 -9 -2 -8 -12 1 -14 -13 -19 -79 -29 -44 -7 -111 -19 -148
-28 -38 -8 -73 -13 -78 -9 -19 11 -8 26 34 44 23 11 34 20 25 20 -11 0 -20 11
-24 28 -4 15 -12 33 -18 41 -9 12 -7 13 9 7 11 -4 38 -9 59 -12 50 -5 52 -8
32 -39 -19 -28 -18 -28 43 -14 24 5 63 10 86 11 l41 0 -12 48 c-7 27 -17 57
-23 68 -10 18 -4 19 127 25 203 10 303 42 338 109 12 22 13 37 6 57 -5 14 -16
46 -23 71 -7 25 -17 50 -22 57 -5 7 -7 18 -4 25 2 7 1 22 -4 34 -4 11 -12 71
-18 133 -13 125 -50 258 -81 286 -10 9 -47 24 -80 32 -82 18 -106 7 -145 -72
-16 -33 -37 -61 -46 -63 -15 -3 -119 100 -119 118 0 15 -90 52 -112 47 -15 -4
-38 8 -82 44 -63 51 -111 64 -134 36z m81 -18 c12 -6 34 -23 49 -37 37 -34 22
-52 -42 -52 -26 0 -69 -7 -96 -15 -27 -8 -50 -15 -52 -15 -6 0 49 99 63 114
19 19 48 21 78 5z m72 -110 c48 -13 75 -35 75 -61 0 -23 1 -23 -51 6 -37 21
-57 25 -123 24 l-80 -1 64 -23 c71 -25 100 -48 84 -64 -8 -8 -21 -5 -45 9 -48
28 -148 53 -194 49 -35 -3 -42 -8 -59 -43 -11 -21 -21 -34 -23 -28 -6 16 21
64 51 92 22 21 32 23 72 17 26 -3 44 -3 40 1 -11 11 60 31 109 32 22 1 58 -4
80 -10z m-196 -98 c12 -16 21 -33 21 -39 0 -5 18 -12 41 -16 46 -7 99 -32 99
-46 0 -18 -20 -20 -90 -5 -83 17 -101 19 -80 5 13 -8 13 -11 -2 -26 -22 -23
-75 -12 -122 25 -31 25 -41 28 -67 21 -25 -8 -29 -7 -20 4 16 20 89 36 168 37
37 1 55 4 38 6 -27 4 -64 36 -65 56 0 4 13 7 29 7 21 0 36 -8 50 -29z m359 -8
c-20 -21 -38 -47 -41 -58 -4 -17 -5 -17 -6 3 -1 15 12 37 34 58 48 46 58 43
13 -3z m-318 6 c0 -18 -20 -18 -29 0 -9 16 -8 18 9 14 11 -3 20 -9 20 -14z
m-110 -17 c0 -4 -9 -8 -19 -8 -15 0 -17 3 -9 13 10 12 28 9 28 -5z m840 -81
c-20 -29 -80 -88 -80 -79 0 2 18 23 41 46 22 23 38 46 35 50 -3 5 1 9 9 9 11
0 10 -6 -5 -26z m-367 -16 c80 -43 188 -85 225 -86 19 -1 21 -3 8 -6 -10 -3
-39 1 -65 8 -67 18 -268 119 -237 119 2 0 33 -16 69 -35z m-533 -26 c-16 -5
-1 -7 42 -8 43 -1 68 -5 71 -13 3 -7 6 -3 6 9 2 56 54 22 76 -48 l13 -47 -39
-10 -39 -10 0 32 c0 17 -5 38 -11 46 -7 11 -8 5 -3 -22 5 -33 4 -38 -12 -38
-11 0 -43 -11 -72 -25 -60 -28 -82 -31 -82 -12 0 15 59 54 109 72 l36 14 -40
-1 c-24 -1 -54 7 -75 20 -19 12 -29 22 -21 22 8 0 12 2 10 4 -2 3 -35 -1 -72
-8 -68 -13 -68 -13 -49 6 10 11 41 30 68 42 l49 23 30 -21 29 -20 -24 -7z
m-580 -4 c7 -21 16 -32 22 -29 7 4 8 2 4 -4 -4 -6 3 -29 14 -52 11 -22 18 -40
15 -40 -2 0 -12 15 -21 33 -9 17 -20 34 -24 37 -6 5 -40 85 -40 96 0 16 20
-11 30 -41z m768 14 c17 -27 0 -24 -27 5 -21 22 -21 24 -4 20 10 -3 24 -14 31
-25z m723 -22 c-57 -75 -86 -114 -98 -133 -11 -18 -12 -17 -5 3 8 25 125 182
131 177 3 -2 -10 -23 -28 -47z m-559 -8 c59 -15 120 -35 135 -44 16 -9 21 -14
12 -11 -14 4 -89 26 -184 53 -18 5 -18 5 -2 -11 18 -19 23 -81 7 -91 -5 -3
-10 3 -10 14 0 25 -14 34 -64 41 -28 4 -41 11 -47 28 -8 21 -6 22 39 23 46 1
46 1 15 10 -18 5 -35 15 -39 21 -5 8 -1 9 12 4 10 -5 67 -21 126 -37z m-881
-187 c24 -42 46 -78 49 -80 9 -3 0 -51 -10 -57 -10 -6 -83 143 -77 158 3 7 -4
28 -14 47 -10 19 -18 29 -19 21 0 -11 -4 -9 -15 5 -20 26 11 -68 52 -156 17
-36 33 -77 37 -93 l6 -27 -25 22 c-19 16 -24 29 -20 45 3 13 1 23 -5 23 -6 0
-9 4 -6 9 6 8 -13 59 -50 136 -14 30 -14 55 2 125 l7 34 23 -67 c13 -37 42
-102 65 -145z m1460 114 c-32 -46 -38 -62 -21 -51 6 3 7 -1 3 -10 -4 -12 -8
-13 -13 -5 -9 14 -52 -42 -48 -61 2 -7 -2 -13 -9 -14 -7 0 -19 -9 -27 -20 -8
-11 -17 -18 -20 -15 -3 3 14 30 37 60 23 30 60 83 82 117 22 34 41 58 43 53 2
-5 -10 -29 -27 -54z m-1028 -120 c15 -21 27 -45 27 -52 0 -31 -56 -35 -165
-14 -24 5 -4 6 53 2 92 -5 92 -5 92 19 0 13 -12 38 -26 54 l-25 30 5 -30 c5
-29 5 -29 -10 5 -9 19 -21 39 -28 43 -7 6 -4 7 7 3 12 -4 17 -2 14 6 -2 7 -10
12 -16 10 -15 -3 -25 23 -17 45 6 14 13 7 35 -32 15 -28 39 -68 54 -89z m352
114 c3 -5 -3 -10 -14 -10 -12 0 -21 5 -21 10 0 6 6 10 14 10 8 0 18 -4 21 -10z
m-149 -35 c-23 -17 -36 -19 -36 -6 0 5 8 12 18 14 32 9 37 6 18 -8z m217 -7
c36 -18 77 -76 77 -107 0 -25 -1 -25 -30 11 -43 52 -97 71 -195 66 -94 -4
-108 9 -38 35 54 20 144 18 186 -5z m-902 -20 c11 -21 11 -22 -4 -9 -10 7 -17
17 -17 22 0 15 9 10 21 -13z m79 2 c6 -11 8 -20 6 -20 -3 0 -10 9 -16 20 -6
11 -8 20 -6 20 3 0 10 -9 16 -20z m-140 -14 c0 -3 -4 -8 -10 -11 -5 -3 -10 -1
-10 4 0 6 5 11 10 11 6 0 10 -2 10 -4z m789 -25 c-16 -13 -27 -16 -34 -10 -12
12 11 29 39 29 16 0 15 -2 -5 -19z m100 -7 c-30 -32 -93 -69 -139 -82 -19 -5
-43 -13 -52 -17 -14 -5 -18 -2 -18 14 0 15 14 28 48 45 26 13 58 33 72 45 17
14 40 20 69 21 l44 0 -24 -26z m-549 -14 l135 -7 -110 -1 c-114 -2 -179 8
-199 28 -7 9 -3 8 14 -1 15 -7 80 -15 160 -19z m587 5 c0 -8 -5 -12 -11 -9 -6
3 0 -3 13 -13 60 -44 67 -52 51 -62 -8 -5 -35 -24 -59 -43 -100 -76 -137 -100
-163 -105 -17 -3 -25 -10 -21 -17 4 -6 -1 -5 -10 3 -18 14 -23 26 -8 16 12 -7
24 31 15 47 -4 7 -4 10 1 6 4 -4 22 3 39 16 17 13 51 34 76 46 65 33 101 60
94 72 -4 5 -18 -1 -33 -16 -20 -20 -38 -26 -69 -26 -23 0 -42 3 -42 8 1 5 116
90 126 92 0 0 1 -7 1 -15z m-893 -21 c3 -8 2 -12 -4 -9 -6 3 -10 10 -10 16 0
14 7 11 14 -7z m249 -21 c-7 -2 -19 -2 -25 0 -7 3 -2 5 12 5 14 0 19 -2 13 -5z
m1037 -5 c0 -4 -4 -8 -9 -8 -6 0 -12 4 -15 8 -3 5 1 9 9 9 8 0 15 -4 15 -9z
m320 -14 c0 -7 -19 -27 -42 -44 -22 -16 -36 -30 -30 -30 6 0 14 5 17 10 3 6
11 10 17 10 6 0 3 -10 -8 -22 -10 -13 -2 -8 18 10 22 22 38 30 43 23 19 -32
-32 -86 -107 -112 -29 -10 -45 -18 -35 -19 29 0 90 29 119 57 35 33 47 23 25
-21 -33 -70 -159 -105 -373 -106 -85 0 -114 3 -124 14 -9 12 -5 16 27 21 66
11 70 15 11 10 -53 -5 -58 -3 -59 15 -2 33 -4 38 -11 46 -13 12 -9 21 10 27 9
3 37 13 62 23 27 10 94 19 171 24 131 8 192 25 234 67 21 22 35 21 35 -3z
m-1602 -5 c3 -11 2 -11 -7 1 -9 13 -11 12 -11 -3 0 -10 -4 -16 -10 -12 -12 7
-1 37 13 32 6 -2 12 -10 15 -18z m305 14 c-7 -2 -21 -2 -30 0 -10 3 -4 5 12 5
17 0 24 -2 18 -5z m-378 -64 c32 -54 84 -98 208 -174 94 -58 114 -80 274 -313
141 -204 199 -265 354 -368 155 -103 307 -163 494 -193 l50 -8 -29 -12 c-16
-6 -60 -14 -97 -16 -52 -4 -70 -1 -80 11 -10 12 -23 14 -54 9 -65 -9 -198 36
-241 83 -29 32 -36 35 -53 25 -16 -10 -28 -6 -77 23 -71 43 -90 61 -98 96 -7
32 -1 35 28 11 12 -9 -6 10 -40 43 -33 32 -82 87 -109 122 -49 63 -73 86 -36
33 26 -36 26 -36 1 -38 -15 -1 -20 4 -20 25 0 21 -2 24 -10 12 -9 -13 -10 -13
-10 0 0 8 -3 26 -7 40 -6 23 -5 24 12 10 10 -8 2 12 -19 45 -63 99 -137 193
-180 226 -33 26 -30 22 14 -22 74 -74 157 -196 143 -210 -7 -7 -17 0 -31 23
-12 19 -30 42 -41 52 -11 10 -18 23 -15 28 3 4 1 7 -4 6 -16 -5 -73 42 -66 54
4 7 3 8 -4 4 -13 -8 -232 112 -270 147 -13 12 -35 41 -48 63 -20 34 -24 51
-20 93 3 28 7 55 11 61 11 18 23 10 18 -12 -4 -19 -3 -20 6 -8 7 10 11 11 11
3 0 -20 59 -82 109 -114 45 -30 38 -23 -42 42 -40 32 -77 95 -77 129 0 33 14
23 45 -31z m353 44 c-21 -2 -55 -2 -75 0 -21 2 -4 4 37 4 41 0 58 -2 38 -4z
m451 -69 c-12 -13 -29 -24 -36 -24 -8 0 -25 -7 -38 -16 -13 -9 -29 -13 -36 -9
-11 8 -3 -11 21 -45 8 -12 9 -9 6 12 -4 25 18 48 32 33 3 -3 1 -5 -5 -5 -6 0
-14 -22 -18 -49 -7 -51 -22 -72 -65 -91 -21 -9 -17 -10 23 -5 70 7 138 44 159
85 13 25 18 29 18 15 -1 -28 -30 -60 -80 -86 -39 -20 -100 -28 -290 -39 -8 0
-22 -4 -30 -10 -12 -7 -8 -15 19 -41 24 -23 35 -28 41 -19 14 23 170 35 278
22 53 -7 112 -12 131 -12 39 0 71 -24 71 -53 0 -15 -5 -18 -22 -13 -13 4 -43
10 -66 13 -29 4 -39 9 -30 14 19 13 -172 11 -232 -2 -50 -11 -67 -33 -32 -43
41 -12 144 -28 232 -35 73 -6 82 -9 40 -10 -71 -1 -212 16 -261 33 -28 10 -41
10 -50 2 -9 -8 -9 -6 0 7 8 10 9 17 3 17 -6 0 -21 -14 -35 -31 l-24 -31 -26
45 c-49 83 -156 205 -215 246 -18 12 -29 27 -26 33 4 7 10 4 16 -6 5 -9 13
-16 18 -16 19 0 10 16 -19 33 -48 28 -46 53 6 78 39 19 56 21 127 16 44 -3
130 -15 190 -27 66 -13 112 -18 118 -12 5 5 -15 14 -52 22 -33 7 -58 15 -56
17 2 3 39 -3 80 -12 71 -16 78 -16 101 -1 14 9 25 24 26 34 0 11 2 13 6 4 3
-7 -5 -24 -18 -38z m71 37 c0 -5 -7 -12 -16 -15 -22 -9 -24 -8 -24 9 0 8 9 15
20 15 11 0 20 -4 20 -9z m215 -16 c32 -7 94 -135 65 -135 -6 0 -13 14 -17 30
-7 37 -42 58 -110 66 -76 9 -82 13 -54 35 23 19 38 19 116 4z m65 11 c0 -2 -7
-7 -16 -10 -8 -3 -12 -2 -9 4 6 10 25 14 25 6z m-567 -13 c-7 -2 -19 -2 -25 0
-7 3 -2 5 12 5 14 0 19 -2 13 -5z m415 -46 c6 0 12 -4 12 -9 0 -5 5 -6 10 -3
18 11 11 -4 -12 -25 -12 -11 -36 -21 -52 -21 -25 -1 -26 -3 -8 -6 20 -4 21 -7
10 -21 -7 -9 9 2 36 25 40 33 54 40 68 32 10 -5 18 -14 18 -18 0 -17 -193
-162 -202 -153 -13 13 6 48 40 77 l26 22 -32 -5 c-29 -4 -32 -2 -32 21 0 16 7
27 18 30 12 3 9 5 -8 6 -25 2 -25 2 10 32 27 23 41 28 60 23 14 -4 31 -7 38
-7z m90 -115 c13 -21 13 -22 -9 -23 l-24 0 23 -9 c26 -11 29 -45 5 -59 -12 -7
-13 -10 -4 -11 7 0 22 11 33 25 16 21 23 23 40 14 13 -7 18 -17 15 -29 -4 -14
2 -20 25 -25 27 -6 47 -29 35 -41 -4 -5 -99 10 -209 32 -40 8 -36 34 5 35 29
1 30 2 7 8 -14 3 -35 12 -47 20 l-21 15 22 17 c13 10 31 17 42 15 10 -2 13 -1
7 1 -18 6 -16 20 5 32 22 13 32 10 50 -17z m107 -171 c16 -7 13 -9 -19 -15
-21 -4 -41 -5 -44 -2 -3 3 0 6 7 6 7 0 9 5 6 10 -7 12 21 12 50 1z m-487 -112
c21 0 16 -4 -21 -16 -53 -18 -76 -45 -56 -69 8 -10 8 -14 0 -14 -6 0 -11 5
-11 11 0 5 -5 7 -11 3 -8 -4 -9 1 -4 17 9 31 34 59 52 59 7 0 13 8 14 18 0 10
3 12 6 5 2 -7 17 -13 31 -14z m216 -7 c3 -5 -8 -6 -25 -4 -16 2 -29 6 -29 8 0
8 49 4 54 -4z m-34 -27 c87 -19 155 -19 174 1 9 8 21 12 27 8 16 -10 -46 -34
-87 -34 -19 0 -76 7 -126 16 -133 23 -227 9 -212 -30 8 -21 52 -37 143 -51 54
-9 94 -22 111 -35 103 -82 222 -141 340 -166 81 -17 227 -18 260 -1 13 7 27
23 31 37 7 25 7 25 8 -3 1 -16 5 -26 11 -22 6 3 10 1 10 -5 0 -7 -6 -10 -13
-7 -7 3 -24 -1 -38 -9 -38 -21 -219 -18 -304 5 -89 25 -211 81 -252 115 -31
26 -49 34 -38 17 3 -5 1 -12 -4 -15 -4 -3 -8 4 -7 17 1 13 -5 22 -14 22 -8 1
-14 6 -13 13 2 7 0 12 -5 12 -46 0 -191 33 -212 48 -84 63 43 104 210 67z
m313 -32 c-7 -2 -21 -2 -30 0 -10 3 -4 5 12 5 17 0 24 -2 18 -5z m-769 -57
c-5 -13 -9 -14 -14 -5 -11 16 0 43 12 31 5 -5 6 -17 2 -26z m232 -5 c-4 -6
-13 -11 -19 -11 -8 0 -7 3 2 9 8 5 10 14 6 22 -6 11 -5 11 5 2 7 -6 9 -16 6
-22z m181 -47 c-3 -3 -12 -4 -19 -1 -8 3 -5 6 6 6 11 1 17 -2 13 -5z m-234
-186 c-20 -6 -30 -1 -52 24 -44 53 -48 60 -43 86 5 24 8 21 62 -39 57 -63 57
-64 33 -71z m636 7 c79 -16 209 -17 271 -1 21 5 20 4 -5 -8 -40 -20 -201 -20
-285 0 -59 13 -270 106 -270 118 0 2 46 -17 103 -44 62 -29 136 -55 186 -65z
m-89 -5 c8 -5 11 -10 5 -10 -5 0 -17 5 -25 10 -8 5 -10 10 -5 10 6 0 17 -5 25
-10z m129 -36 c9 -8 -45 -2 -64 6 -14 7 -8 8 20 3 22 -3 42 -7 44 -9z m296 1
c-22 -17 -81 -35 -110 -34 -11 0 3 6 30 13 28 7 59 17 70 24 28 16 34 14 10
-3z m-238 -11 c-3 -3 -12 -4 -19 -1 -8 3 -5 6 6 6 11 1 17 -2 13 -5z"/>
<path d="M993 1843 c9 -2 25 -2 35 0 9 3 1 5 -18 5 -19 0 -27 -2 -17 -5z"/>
<path d="M330 1711 c0 -6 4 -13 10 -16 6 -3 7 1 4 9 -7 18 -14 21 -14 7z"/>
<path d="M445 1490 c3 -5 8 -10 11 -10 2 0 4 5 4 10 0 6 -5 10 -11 10 -5 0 -7
-4 -4 -10z"/>
<path d="M390 1456 c0 -8 4 -17 9 -20 5 -4 7 3 4 14 -6 23 -13 26 -13 6z"/>
<path d="M1825 1430 c-13 -6 -15 -9 -5 -9 8 0 22 4 30 9 18 12 2 12 -25 0z"/>
<path d="M1768 1413 c6 -2 18 -2 25 0 6 3 1 5 -13 5 -14 0 -19 -2 -12 -5z"/>
<path d="M1860 1410 c-9 -6 -10 -10 -3 -10 6 0 15 5 18 10 8 12 4 12 -15 0z"/>
<path d="M1633 1403 c20 -2 54 -2 75 0 20 2 3 4 -38 4 -41 0 -58 -2 -37 -4z"/>
<path d="M1495 1385 c-52 -17 -35 -17 40 0 37 8 49 13 30 13 -16 0 -48 -5 -70
-13z"/>
<path d="M1788 1383 c7 -3 16 -2 19 1 4 3 -2 6 -13 5 -11 0 -14 -3 -6 -6z"/>
<path d="M1723 1373 c9 -2 25 -2 35 0 9 3 1 5 -18 5 -19 0 -27 -2 -17 -5z"/>
<path d="M1598 1363 c18 -2 45 -2 60 0 15 2 0 4 -33 4 -33 0 -45 -2 -27 -4z"/>
<path d="M1513 1353 c9 -2 23 -2 30 0 6 3 -1 5 -18 5 -16 0 -22 -2 -12 -5z"/>
<path d="M1468 1343 c7 -3 16 -2 19 1 4 3 -2 6 -13 5 -11 0 -14 -3 -6 -6z"/>
<path d="M1768 1333 c6 -2 18 -2 25 0 6 3 1 5 -13 5 -14 0 -19 -2 -12 -5z"/>
<path d="M1638 1323 c17 -2 47 -2 65 0 17 2 3 4 -33 4 -36 0 -50 -2 -32 -4z"/>
<path d="M230 1402 c0 -23 81 -101 171 -162 49 -34 89 -59 89 -56 0 3 -34 28
-75 56 -93 63 -143 106 -167 145 -10 16 -18 24 -18 17z"/>
<path d="M230 1323 c11 -18 35 -42 53 -53 l32 -22 -29 25 c-15 14 -39 38 -53
53 l-25 29 22 -32z"/>
<path d="M400 1286 c0 -2 29 -22 64 -45 70 -46 152 -127 210 -208 47 -66 58
-70 15 -5 -45 66 -196 212 -247 240 -23 12 -42 21 -42 18z"/>
<path d="M737 939 c47 -79 151 -205 216 -260 67 -56 136 -104 97 -67 -8 8 -48
40 -87 72 -67 53 -137 135 -208 244 -32 49 -45 57 -18 11z"/>
<path d="M1002 598 c30 -26 88 -62 88 -55 0 2 -26 21 -57 41 -32 20 -46 27
-31 14z"/>
<path d="M1085 585 c22 -18 86 -53 70 -38 -5 6 -28 20 -50 32 -22 13 -31 15
-20 6z"/>
<path d="M1170 535 c0 -7 81 -47 86 -43 2 3 -17 14 -41 26 -25 12 -45 20 -45
17z"/>
<path d="M1210 480 c8 -5 20 -10 25 -10 6 0 3 5 -5 10 -8 5 -19 10 -25 10 -5
0 -3 -5 5 -10z"/>
<path d="M1280 480 c8 -5 20 -10 25 -10 6 0 3 5 -5 10 -8 5 -19 10 -25 10 -5
0 -3 -5 5 -10z"/>
<path d="M1260 460 c8 -5 22 -9 30 -9 10 0 8 3 -5 9 -27 12 -43 12 -25 0z"/>
<path d="M1345 455 c17 -8 37 -14 45 -14 8 0 -1 7 -20 14 -46 18 -64 17 -25 0z"/>
<path d="M1418 433 c7 -3 16 -2 19 1 4 3 -2 6 -13 5 -11 0 -14 -3 -6 -6z"/>
<path d="M1490 416 c0 -2 9 -6 20 -9 11 -3 18 -1 14 4 -5 9 -34 13 -34 5z"/>
<path d="M673 1423 c9 -2 23 -2 30 0 6 3 -1 5 -18 5 -16 0 -22 -2 -12 -5z"/>
<path d="M728 1423 c6 -2 18 -2 25 0 6 3 1 5 -13 5 -14 0 -19 -2 -12 -5z"/>
<path d="M808 1413 c7 -3 16 -2 19 1 4 3 -2 6 -13 5 -11 0 -14 -3 -6 -6z"/>
<path d="M611 1391 c-37 -37 -21 -94 41 -146 32 -27 36 -27 118 -22 89 6 172
27 205 51 16 12 18 19 10 42 -21 59 -78 80 -246 90 -100 6 -107 6 -128 -15z"/>
<path d="M920 1396 c0 -2 7 -7 16 -10 8 -3 12 -2 9 4 -6 10 -25 14 -25 6z"/>
<path d="M841 1141 c-31 -5 -32 -7 -18 -20 20 -16 47 -16 107 -2 25 6 72 15
105 20 56 8 53 8 -50 8 -60 0 -125 -2 -144 -6z"/>
<path d="M1128 1133 c7 -3 16 -2 19 1 4 3 -2 6 -13 5 -11 0 -14 -3 -6 -6z"/>
<path d="M1315 1119 c-4 -6 -5 -12 -2 -15 2 -3 7 2 10 11 7 17 1 20 -8 4z"/>
<path d="M0 85 l0 -85 1080 0 1080 0 0 85 0 85 -1080 0 -1080 0 0 -85z m295
15 c-17 -7 -17 -9 -2 -9 19 -1 23 -26 6 -37 -6 -3 -16 -1 -22 6 -9 10 -9 11 0
6 6 -3 14 -2 17 3 3 5 -1 11 -9 15 -23 8 -18 26 8 25 21 0 21 -1 2 -9z m32
-27 c-3 -10 -5 -4 -5 12 0 17 2 24 5 18 2 -7 2 -21 0 -30z m111 21 c4 2 8 -8
8 -22 1 -15 -1 -21 -3 -14 -3 6 -9 10 -14 6 -5 -3 -9 7 -8 23 0 15 3 22 6 15
2 -6 8 -10 11 -8z m-201 0 c-3 -3 -12 -4 -19 -1 -8 3 -5 6 6 6 11 1 17 -2 13
-5z m160 -6 c-9 -6 -9 -10 3 -18 12 -7 11 -9 -5 -8 -11 0 -27 -1 -35 -3 -9 -2
-16 4 -18 18 -3 18 1 21 32 20 22 -1 31 -4 23 -9z m1530 -20 c-3 -8 -6 -5 -6
6 -1 11 2 17 5 13 3 -3 4 -12 1 -19z m44 -1 c-10 -9 -11 -8 -5 6 3 10 9 15 12
12 3 -3 0 -11 -7 -18z m74 4 c-3 -6 -11 -11 -16 -11 -5 0 -4 6 3 14 14 16 24
13 13 -3z m45 9 c0 -5 -7 -7 -15 -4 -8 4 -15 8 -15 10 0 2 7 4 15 4 8 0 15 -4
15 -10z m-1997 -15 c-3 -9 -8 -14 -10 -11 -3 3 -2 9 2 15 9 16 15 13 8 -4z
m31 -1 c3 -8 2 -12 -4 -9 -6 3 -10 10 -10 16 0 14 7 11 14 -7z m1486 6 c0 -5
-4 -10 -9 -10 -6 0 -13 5 -16 10 -3 6 1 10 9 10 9 0 16 -4 16 -10z m80 -1 c0
-4 -11 -6 -25 -6 -14 0 -25 3 -25 8 0 5 11 8 25 7 14 -1 25 -5 25 -9z m50 1
c0 -5 -4 -10 -10 -10 -5 0 -10 5 -10 10 0 6 5 10 10 10 6 0 10 -4 10 -10z m30
0 c0 -5 -4 -10 -10 -10 -5 0 -10 5 -10 10 0 6 5 10 10 10 6 0 10 -4 10 -10z
m124 2 c2 -4 -6 -8 -19 -8 -13 0 -21 4 -19 8 7 10 31 10 38 0z"/>
<path d="M350 74 c0 -8 5 -12 10 -9 6 3 10 10 10 16 0 5 -4 9 -10 9 -5 0 -10
-7 -10 -16z"/>
</g>
</svg>
