<?xml version="1.0" standalone="no"?>
<!DOCTYPE svg PUBLIC "-//W3C//DTD SVG 20010904//EN"
 "http://www.w3.org/TR/2001/REC-SVG-20010904/DTD/svg10.dtd">
<svg version="1.0" xmlns="http://www.w3.org/2000/svg"
 width="225.000000pt" height="225.000000pt" viewBox="0 0 225.000000 225.000000"
 preserveAspectRatio="xMidYMid meet">

<g transform="translate(0.000000,225.000000) scale(0.100000,-0.100000)"
fill="#000000" stroke="none">
<path d="M1130 2117 c-37 -12 -124 -93 -153 -142 -9 -16 -26 -43 -36 -60 -21
-32 -55 -149 -66 -226 -6 -42 -4 -48 36 -100 23 -29 45 -56 49 -59 19 -16 96
-143 157 -260 48 -90 87 -184 118 -280 63 -193 87 -250 135 -315 39 -53 42
-55 63 -40 37 26 90 18 179 -26 147 -72 333 -103 473 -79 42 7 78 17 81 22 4
5 -5 21 -17 35 -13 13 -23 33 -21 44 2 10 -1 19 -7 19 -5 0 -15 17 -21 38 -7
20 -19 44 -27 53 -7 9 -11 23 -8 31 6 14 -36 160 -53 185 -5 9 -12 2 -21 -22
-9 -27 -20 -37 -49 -45 -20 -5 -50 -10 -65 -10 -16 0 -59 -5 -97 -11 -85 -14
-135 -5 -171 30 -35 35 -57 105 -41 131 12 20 7 30 -19 30 -10 0 -21 10 -24
23 -4 12 -35 91 -68 175 -49 122 -58 155 -48 162 19 11 6 40 -18 40 -14 0 -29
16 -47 48 -15 26 -47 80 -71 121 -23 40 -43 74 -43 76 0 3 115 -6 130 -11 12
-4 10 -9 -9 -23 -30 -23 -22 -37 29 -45 27 -4 45 -14 57 -32 17 -26 16 -27
-11 -51 -27 -23 -28 -26 -13 -41 15 -14 21 -14 53 -3 40 14 48 9 60 -36 4 -16
-3 -29 -28 -51 -39 -36 -32 -50 21 -36 l37 10 16 -42 c15 -42 15 -43 -14 -64
-49 -36 -33 -63 25 -41 22 9 25 6 36 -30 11 -38 11 -41 -13 -60 -14 -11 -26
-29 -26 -40 0 -10 1 -19 3 -19 1 0 17 4 34 9 31 9 33 8 43 -27 17 -61 13 -82
-14 -82 -26 0 -51 -23 -42 -39 13 -20 75 -33 108 -22 17 6 70 14 117 17 47 3
100 12 117 20 35 15 50 42 34 58 -13 13 -52 14 -63 1 -5 -6 -7 0 -4 12 3 14
-4 36 -17 55 -42 62 -41 62 -12 54 25 -6 26 -5 16 14 -6 11 -24 30 -40 42 -32
23 -46 51 -35 68 5 8 11 8 20 0 7 -6 15 -7 18 -3 9 16 -13 53 -38 65 -14 6
-26 19 -26 30 -1 10 -2 24 -3 31 -1 6 7 11 17 11 26 -3 21 32 -9 53 -22 17
-25 24 -19 51 3 18 11 30 16 26 19 -11 20 26 2 57 -13 24 -15 33 -5 36 20 7
14 44 -8 50 -15 4 -20 14 -20 40 0 53 -21 126 -43 151 -24 26 -52 30 -43 6 3
-9 8 -48 11 -87 3 -40 8 -89 11 -109 l4 -38 -50 0 c-34 0 -52 5 -56 14 -3 8
-13 65 -22 127 -19 129 -23 133 -103 105 -43 -15 -44 -15 -59 6 -46 68 -154
200 -173 213 -33 21 -76 26 -117 12z m-193 -299 c-2 -13 -4 -3 -4 22 0 25 2
35 4 23 2 -13 2 -33 0 -45z m801 -441 c12 -18 22 -48 22 -65 0 -28 -4 -32 -27
-33 l-28 -2 28 -4 c40 -6 33 -23 -9 -23 -35 0 -36 1 -31 29 7 33 -9 101 -23
101 -6 0 -10 7 -10 15 0 10 10 15 28 15 19 0 33 -9 50 -33z"/>
<path d="M1688 1393 c7 -3 16 -2 19 1 4 3 -2 6 -13 5 -11 0 -14 -3 -6 -6z"/>
<path d="M760 1415 c0 -14 31 -65 40 -65 5 0 0 16 -11 35 -20 33 -29 42 -29
30z"/>
<path d="M828 1315 c7 -25 56 -75 75 -75 15 0 77 -72 77 -90 0 -6 -11 -22 -25
-35 -22 -23 -32 -25 -119 -25 -52 0 -98 -4 -101 -10 -3 -5 -24 -9 -46 -8 -23
1 -44 -3 -47 -9 -4 -5 -33 -13 -64 -16 -32 -3 -65 -13 -74 -21 -8 -9 -26 -16
-39 -16 -33 0 -55 -10 -55 -24 0 -7 -27 -20 -60 -29 -37 -11 -60 -22 -60 -31
0 -8 -13 -20 -30 -28 -16 -7 -30 -20 -30 -29 0 -9 -24 -37 -53 -62 -30 -25
-54 -52 -55 -59 -1 -19 -30 -98 -49 -134 -13 -26 -14 -39 -5 -77 7 -25 12 -56
12 -69 0 -36 43 -90 90 -115 75 -40 194 -27 343 38 38 17 99 35 136 40 66 9
133 25 161 38 16 8 80 -14 79 -27 -1 -18 -60 -50 -114 -60 -32 -7 -64 -17 -70
-24 -6 -6 -6 -9 0 -6 6 3 39 9 75 12 74 7 62 5 311 46 102 17 198 32 215 34
40 5 42 6 19 16 -19 7 -19 8 -2 15 13 5 23 1 33 -14 8 -11 25 -21 38 -21 12 0
32 -9 43 -19 12 -11 24 -17 27 -14 3 4 6 -9 6 -28 0 -31 5 -38 41 -57 46 -25
59 -28 41 -10 -7 7 -12 18 -12 26 0 18 45 8 68 -14 11 -11 25 -14 50 -9 25 5
39 2 53 -11 14 -12 43 -19 102 -23 61 -3 74 -7 52 -12 -40 -9 115 -11 170 -2
31 5 35 8 20 14 -15 6 -16 8 -4 8 9 1 36 11 60 24 69 37 81 119 14 102 -11 -2
-43 -5 -71 -5 -39 0 -61 -7 -96 -30 -157 -104 -408 -47 -610 139 -94 87 -134
168 -131 268 1 40 -1 73 -4 73 -3 0 -45 -24 -92 -54 -47 -30 -97 -57 -111 -61
-13 -4 -36 -16 -50 -26 -14 -11 -83 -44 -155 -74 -71 -30 -125 -55 -118 -55 6
0 32 9 57 20 25 10 46 17 46 14 0 -2 11 3 25 12 14 9 25 13 25 10 0 -4 13 0
29 8 28 15 29 15 23 -6 -12 -47 -136 -143 -170 -131 -14 5 -44 -15 -38 -26 3
-4 -9 -14 -25 -24 -17 -9 -27 -12 -24 -7 8 13 2 13 -30 -2 -14 -6 -25 -14 -25
-18 0 -4 -11 -8 -24 -8 -14 0 -36 -11 -51 -26 -16 -16 -37 -26 -55 -26 -17 0
-30 -4 -30 -9 0 -5 -21 -8 -47 -6 -29 2 -51 -2 -55 -9 -6 -8 -8 -7 -8 2 0 7
-5 10 -10 7 -7 -4 -9 3 -4 22 8 35 74 105 139 147 106 69 508 296 523 296 4 0
41 22 82 48 77 51 160 127 160 148 0 7 -15 32 -33 55 -24 33 -56 55 -127 91
-64 32 -116 66 -156 105 -40 38 -59 51 -56 38z m-40 -312 c-10 -2 -28 -2 -40
0 -13 2 -5 4 17 4 22 1 32 -1 23 -4z m49 -9 c-3 -3 -12 -4 -19 -1 -8 3 -5 6 6
6 11 1 17 -2 13 -5z m-229 -79 c46 -8 105 -16 131 -16 l46 -2 -44 -7 c-61 -10
-251 22 -251 42 0 5 7 7 16 4 9 -4 55 -13 102 -21z m-114 -140 c50 -5 65 -10
57 -18 -8 -8 -40 -7 -122 5 -113 16 -125 20 -115 36 4 7 25 5 59 -3 28 -7 83
-16 121 -20z m-206 -151 c44 -7 51 -14 28 -33 -11 -9 -29 -9 -75 2 -69 16 -76
20 -66 37 5 7 20 10 39 6 17 -3 50 -9 74 -12z"/>
<path d="M742 544 c-14 -16 -5 -18 17 -5 7 5 9 11 5 14 -5 3 -15 -1 -22 -9z"/>
<path d="M640 480 c0 -5 7 -7 15 -4 8 4 15 8 15 10 0 2 -7 4 -15 4 -8 0 -15
-4 -15 -10z"/>
<path d="M1797 349 c7 -7 15 -10 18 -7 3 3 -2 9 -12 12 -14 6 -15 5 -6 -5z"/>
</g>
</svg>
